<?xml version="1.0" encoding="utf-8"?>
<!-- Generator: Adobe Illustrator 27.5.0, SVG Export Plug-In . SVG Version: 6.00 Build 0)  -->
<svg version="1.1" id="Layer_1" xmlns="http://www.w3.org/2000/svg" xmlns:xlink="http://www.w3.org/1999/xlink" x="0px" y="0px"
	 viewBox="0 0 26.5 33.2" style="enable-background:new 0 0 26.5 33.2;" xml:space="preserve">
<style type="text/css">
	.st0{fill:#E44D27;}
</style>
<path id="phone-ringing" class="st0" d="M0,16.6c0,0.4,0.3,0.7,0.7,0.7h6.6c0.4,0,0.7-0.3,0.7-0.7s-0.3-0.7-0.7-0.7H0.7
	C0.3,15.9,0,16.2,0,16.6C0,16.6,0,16.6,0,16.6z M2.4,5.6c0,0.3,0.1,0.5,0.4,0.6l6,2.8c0.3,0.2,0.7,0,0.9-0.3
	c0.1-0.1,0.1-0.2,0.1-0.4c0-0.2,1.2,0.3-0.4-0.5s-6-2.8-6-2.8C3,4.9,2.6,5,2.5,5.4C2.4,5.4,2.4,5.5,2.4,5.6L2.4,5.6z M2.4,27.5
	c0,0.4,0.3,0.6,0.7,0.6c0.1,0,0.2,0,0.3-0.1l6-2.8c0.3-0.1,0.5-0.5,0.4-0.9c-0.1-0.3-0.5-0.5-0.9-0.4c0,0,0,0-0.1,0l-6,2.8
	C2.6,27,2.4,27.3,2.4,27.5z M14.6,16.6c-0.1,3.3,0.3,6.5,1,9.7c0.2,0.7,0.4,1.4,0.6,2.1c0.5,1.5,1.3,2.9,2.3,4
	c0.4,0.4,0.9,0.6,1.4,0.6c0.6,0.1,1.2,0.1,1.8,0.1c1,0,2-0.1,3-0.3c1.1-0.1,1.9-1,1.8-2c0,0,0,0,0,0c-0.1-0.6-1.2-5.8-1.4-6.6
	c-0.3-0.8-0.9-1.3-1.7-1.5c-0.4-0.1-1.2-0.3-2.1-0.5c-0.6-0.1-0.9-0.2-1.1-0.3c-0.3-1.8-0.5-3.6-0.4-5.4c-0.1-1.8,0.1-3.6,0.4-5.4
	c0.3-0.1,0.5-0.1,1.1-0.3c0.8-0.2,1.7-0.4,2.1-0.5c0.8-0.1,1.4-0.7,1.7-1.5c0.1-0.3,0.4-1.8,0.7-3.3s0.6-2.9,0.7-3.3l0,0
	c0.1-1.1-0.7-2-1.8-2.1c0,0,0,0,0,0l0,0c-1-0.1-2-0.2-3-0.3c-0.6,0-1.2,0-1.8,0.1c-0.5,0-1,0.2-1.4,0.6c-1,1.2-1.8,2.5-2.3,4
	C15,8.5,14.5,12.5,14.6,16.6z M15.9,16.6c-0.1-3.9,0.4-7.7,1.6-11.4c0.4-1.3,1.1-2.5,2-3.6c0.2-0.1,0.4-0.1,0.7-0.2
	c0.5-0.1,1-0.1,1.6-0.1c0.9,0,1.8,0.1,2.8,0.2c0.3,0,0.6,0.2,0.7,0.6l0,0c0,0.2-0.3,1.7-0.6,3.2s-0.6,3-0.7,3.3
	c-0.2,0.2-0.5,0.4-0.8,0.5l0,0c-0.2,0.1-1.2,0.3-2,0.5S19.6,10,19.6,10c-0.2,0.1-0.4,0.2-0.5,0.5c-0.4,2-0.6,4.1-0.5,6.2
	c-0.1,2.1,0.1,4.1,0.5,6.2c0.1,0.2,0.3,0.4,0.5,0.5c0,0,0.7,0.2,1.5,0.4s1.7,0.4,2,0.5l0,0c0.3,0.1,0.6,0.3,0.8,0.5l0,0
	c0.1,0.5,1.3,6.1,1.3,6.5c-0.1,0.3-0.4,0.5-0.7,0.5l0,0c-0.9,0.1-1.8,0.2-2.8,0.2c-0.5,0-1,0-1.6-0.1c-0.2,0-0.4-0.1-0.7-0.2
	c-0.9-1-1.6-2.2-2-3.6C16.3,24.3,15.8,20.5,15.9,16.6z"/>
</svg>
