<svg id="Group_17432" data-name="Group 17432" xmlns="http://www.w3.org/2000/svg" width="16" height="16" viewBox="0 0 16 16"><path id="Path_8437" data-name="Path 8437" d="M0,0H16V16H0Z" fill="none"/><path id="Path_8438" data-name="Path 8438" d="M4.333,4H7L8.333,7.333l-1.667,1A7.333,7.333,0,0,0,10,11.667L11,10l3.333,1.333V14A1.333,1.333,0,0,1,13,15.333a10.667,10.667,0,0,1-10-10A1.333,1.333,0,0,1,4.333,4" transform="translate(-1 -1.333)" fill="none" stroke="#fff" stroke-linecap="round" stroke-linejoin="round" stroke-width="1.5"/><path id="Path_8439" data-name="Path 8439" d="M15,7a1.333,1.333,0,0,1,1.333,1.333" transform="translate(-5 -2.333)" fill="none" stroke="#fff" stroke-linecap="round" stroke-linejoin="round" stroke-width="1.5"/><path id="Path_8440" data-name="Path 8440" d="M15,3a4,4,0,0,1,4,4" transform="translate(-5 -1)" fill="none" stroke="#fff" stroke-linecap="round" stroke-linejoin="round" stroke-width="1.5"/></svg>