<?xml version="1.0" encoding="utf-8"?>
<!-- Generator: Adobe Illustrator 27.0.1, SVG Export Plug-In . SVG Version: 6.00 Build 0)  -->
<svg version="1.1" id="Layer_1" xmlns="http://www.w3.org/2000/svg" xmlns:xlink="http://www.w3.org/1999/xlink" x="0px" y="0px"
	 viewBox="0 0 137.7 86.9" style="enable-background:new 0 0 137.7 86.9;" xml:space="preserve">
<style type="text/css">
	.st0{opacity:0.1;}
	.st1{fill:#295271;}
</style>
<g id="Group_205" transform="translate(605.414 237.484)" class="st0">
	<path id="Path_427" class="st1" d="M-481.5-227.3c-3.8,0-5.6-2.3-7.4-4.6c-1.7-2.1-3.2-4.1-6.4-4.1s-4.7,2-6.4,4.1
		c-1.8,2.2-3.6,4.6-7.4,4.6s-5.6-2.3-7.4-4.6c-1.7-2.1-3.2-4.1-6.4-4.1s-4.7,2-6.4,4.1c-1.8,2.2-3.6,4.6-7.4,4.6s-5.6-2.3-7.3-4.6
		c-1.7-2.1-3.2-4.1-6.4-4.1s-4.7,2-6.4,4.1c-1.8,2.2-3.6,4.6-7.4,4.6s-5.6-2.3-7.3-4.6c-1.7-2.1-3.2-4.1-6.4-4.1s-4.7,2-6.4,4.1
		c-1.8,2.2-3.6,4.6-7.3,4.6c-3.8,0-5.6-2.3-7.4-4.6c-1.7-2.1-3.2-4.1-6.4-4.1v-0.9c3.8,0,5.6,2.3,7.4,4.6c1.7,2.1,3.2,4.1,6.4,4.1
		s4.7-2,6.4-4.1c1.8-2.2,3.6-4.6,7.3-4.6c3.8,0,5.6,2.3,7.3,4.6c1.7,2.1,3.2,4.1,6.4,4.1s4.7-2,6.4-4.1c1.8-2.2,3.6-4.6,7.4-4.6
		s5.6,2.3,7.4,4.6c1.7,2.1,3.2,4.1,6.4,4.1s4.7-2,6.4-4.1c1.8-2.2,3.6-4.6,7.4-4.6s5.6,2.3,7.4,4.6c1.7,2.1,3.2,4.1,6.4,4.1
		s4.7-2,6.4-4.1c1.8-2.2,3.6-4.6,7.4-4.6s5.6,2.3,7.4,4.6c1.7,2.1,3.2,4.1,6.4,4.1s4.7-2,6.4-4.1c1.8-2.2,3.6-4.6,7.4-4.6v0.9
		c-3.1,0-4.7,2-6.4,4.1C-475.9-229.7-477.7-227.3-481.5-227.3z"/>
	<path id="Path_428" class="st1" d="M-481.5-219.6c-3.8,0-5.6-2.3-7.4-4.6c-1.7-2.1-3.2-4.1-6.4-4.1s-4.7,2-6.4,4.1
		c-1.8,2.2-3.6,4.6-7.4,4.6s-5.6-2.3-7.4-4.6c-1.7-2.1-3.2-4.1-6.4-4.1s-4.7,2-6.4,4.1c-1.8,2.2-3.6,4.6-7.4,4.6s-5.6-2.3-7.4-4.6
		c-1.7-2.1-3.2-4.1-6.4-4.1s-4.7,2-6.4,4.1c-1.8,2.2-3.6,4.6-7.4,4.6s-5.6-2.3-7.3-4.6c-1.7-2.1-3.2-4.1-6.4-4.1s-4.7,2-6.4,4.1
		c-1.8,2.2-3.6,4.6-7.3,4.6c-3.8,0-5.6-2.3-7.4-4.6c-1.7-2.1-3.2-4.1-6.4-4.1v-0.9c3.8,0,5.6,2.3,7.4,4.6c1.7,2.1,3.2,4.1,6.4,4.1
		s4.7-2,6.4-4.1c1.8-2.2,3.6-4.6,7.3-4.6c3.8,0,5.6,2.3,7.3,4.6c1.7,2.1,3.2,4.1,6.4,4.1s4.7-2,6.4-4.1c1.8-2.2,3.6-4.6,7.4-4.6
		s5.6,2.3,7.4,4.6c1.7,2.1,3.2,4.1,6.4,4.1s4.7-2,6.4-4.1c1.8-2.2,3.6-4.6,7.4-4.6s5.6,2.3,7.4,4.6c1.7,2.1,3.2,4.1,6.4,4.1
		s4.7-2,6.4-4.1c1.8-2.2,3.6-4.6,7.4-4.6s5.6,2.3,7.4,4.6c1.7,2.1,3.2,4.1,6.4,4.1s4.7-2,6.4-4.1c1.8-2.2,3.6-4.6,7.4-4.6v0.9
		c-3.1,0-4.7,2-6.4,4.1C-475.9-222-477.7-219.6-481.5-219.6z"/>
	<path id="Path_429" class="st1" d="M-481.5-211.9c-3.8,0-5.6-2.3-7.4-4.6c-1.7-2.1-3.2-4.1-6.4-4.1s-4.7,2-6.4,4.1
		c-1.8,2.2-3.6,4.6-7.4,4.6s-5.6-2.3-7.4-4.6c-1.7-2.1-3.2-4.1-6.4-4.1s-4.7,2-6.4,4.1c-1.8,2.2-3.6,4.6-7.4,4.6s-5.6-2.3-7.4-4.6
		c-1.7-2.1-3.2-4.1-6.4-4.1s-4.7,2-6.4,4.1c-1.8,2.2-3.6,4.6-7.4,4.6s-5.6-2.3-7.3-4.6c-1.7-2.1-3.2-4.1-6.4-4.1s-4.7,2-6.4,4.1
		c-1.8,2.2-3.6,4.6-7.3,4.6c-3.8,0-5.6-2.3-7.4-4.6c-1.7-2.1-3.2-4.1-6.4-4.1v-0.9c3.8,0,5.6,2.3,7.4,4.6c1.7,2.1,3.2,4.1,6.4,4.1
		s4.7-2,6.4-4.1c1.8-2.2,3.6-4.6,7.3-4.6c3.8,0,5.6,2.3,7.3,4.6c1.7,2.1,3.2,4.1,6.4,4.1s4.7-2,6.4-4.1c1.8-2.2,3.6-4.6,7.4-4.6
		s5.6,2.3,7.4,4.6c1.7,2.1,3.2,4.1,6.4,4.1s4.7-2,6.4-4.1c1.8-2.2,3.6-4.6,7.4-4.6s5.6,2.3,7.4,4.6c1.7,2.1,3.2,4.1,6.4,4.1
		s4.7-2,6.4-4.1c1.8-2.2,3.6-4.6,7.4-4.6s5.6,2.3,7.4,4.6c1.7,2.1,3.2,4.1,6.4,4.1s4.7-2,6.4-4.1c1.8-2.2,3.6-4.6,7.4-4.6v0.9
		c-3.1,0-4.7,2-6.4,4.1C-475.9-214.3-477.7-211.9-481.5-211.9z"/>
	<path id="Path_430" class="st1" d="M-481.5-204.3c-3.8,0-5.6-2.3-7.4-4.6c-1.7-2.1-3.2-4.1-6.4-4.1s-4.7,2-6.4,4.1
		c-1.8,2.2-3.6,4.6-7.4,4.6s-5.6-2.3-7.4-4.6c-1.7-2.1-3.2-4.1-6.4-4.1s-4.7,2-6.4,4.1c-1.8,2.2-3.6,4.6-7.4,4.6s-5.6-2.3-7.4-4.6
		c-1.7-2.1-3.2-4.1-6.4-4.1s-4.7,2-6.4,4.1c-1.8,2.2-3.6,4.6-7.4,4.6s-5.6-2.3-7.3-4.6c-1.7-2.1-3.2-4.1-6.4-4.1s-4.7,2-6.4,4.1
		c-1.8,2.2-3.6,4.6-7.3,4.6c-3.8,0-5.6-2.3-7.4-4.6c-1.7-2.1-3.2-4.1-6.4-4.1v-0.9c3.8,0,5.6,2.3,7.4,4.6c1.7,2.1,3.2,4.1,6.4,4.1
		s4.7-2,6.4-4.1c1.8-2.2,3.6-4.6,7.3-4.6c3.8,0,5.6,2.3,7.3,4.6c1.7,2.1,3.2,4.1,6.4,4.1s4.7-2,6.4-4.1c1.8-2.2,3.6-4.6,7.4-4.6
		s5.6,2.3,7.4,4.6c1.7,2.1,3.2,4.1,6.4,4.1s4.7-2,6.4-4.1c1.8-2.2,3.6-4.6,7.4-4.6s5.6,2.3,7.4,4.6c1.7,2.1,3.2,4.1,6.4,4.1
		s4.7-2,6.4-4.1c1.8-2.2,3.6-4.6,7.4-4.6s5.6,2.3,7.4,4.6c1.7,2.1,3.2,4.1,6.4,4.1s4.7-2,6.4-4.1c1.8-2.2,3.6-4.6,7.4-4.6v0.9
		c-3.1,0-4.7,2-6.4,4.1C-475.9-206.6-477.7-204.3-481.5-204.3z"/>
	<path id="Path_431" class="st1" d="M-481.5-196.6c-3.8,0-5.6-2.3-7.4-4.6c-1.7-2.1-3.2-4.1-6.4-4.1s-4.7,2-6.4,4.1
		c-1.8,2.2-3.6,4.6-7.4,4.6s-5.6-2.3-7.4-4.6c-1.7-2.1-3.2-4.1-6.4-4.1s-4.7,2-6.4,4.1c-1.8,2.2-3.6,4.6-7.4,4.6s-5.6-2.3-7.4-4.6
		c-1.7-2.1-3.2-4.1-6.4-4.1s-4.7,2-6.4,4.1c-1.8,2.2-3.6,4.6-7.4,4.6s-5.6-2.3-7.3-4.6c-1.7-2.1-3.2-4.1-6.4-4.1s-4.7,2-6.4,4.1
		c-1.8,2.2-3.6,4.6-7.3,4.6c-3.8,0-5.6-2.3-7.4-4.6c-1.7-2.1-3.2-4.1-6.4-4.1v-0.9c3.8,0,5.6,2.3,7.4,4.6c1.7,2.1,3.2,4.1,6.4,4.1
		s4.7-2,6.4-4.1c1.7-2.2,3.5-4.6,7.2-4.6s5.6,2.3,7.3,4.6c1.7,2.1,3.2,4.1,6.4,4.1s4.7-2,6.4-4.1c1.8-2.2,3.7-4.6,7.4-4.6
		s5.6,2.3,7.4,4.6c1.7,2.1,3.2,4.1,6.4,4.1s4.7-2,6.4-4.1c1.8-2.2,3.6-4.6,7.4-4.6s5.6,2.3,7.4,4.6c1.7,2.1,3.2,4.1,6.4,4.1
		s4.7-2,6.4-4.1c1.8-2.2,3.6-4.6,7.4-4.6s5.6,2.3,7.4,4.6c1.7,2.1,3.2,4.1,6.4,4.1s4.7-2,6.4-4.1c1.8-2.2,3.6-4.6,7.4-4.6v0.9
		c-3.1,0-4.7,2-6.4,4.1C-475.9-198.9-477.7-196.6-481.5-196.6z"/>
	<path id="Path_432" class="st1" d="M-481.5-189c-3.8,0-5.6-2.3-7.4-4.6c-1.7-2.1-3.2-4.1-6.4-4.1s-4.7,2-6.4,4.1
		c-1.8,2.2-3.6,4.6-7.4,4.6s-5.6-2.3-7.4-4.6c-1.7-2.1-3.2-4.1-6.4-4.1s-4.7,2-6.4,4.1c-1.8,2.2-3.6,4.6-7.4,4.6s-5.6-2.3-7.3-4.5
		c-1.7-2.1-3.2-4.1-6.4-4.1s-4.7,2-6.4,4.1c-1.8,2.2-3.6,4.6-7.4,4.6s-5.6-2.3-7.3-4.6c-1.7-2.1-3.2-4.1-6.4-4.1s-4.7,2-6.4,4.1
		c-1.8,2.2-3.6,4.6-7.3,4.6c-3.8,0-5.6-2.3-7.4-4.6c-1.7-2.1-3.2-4.1-6.4-4.1v-0.9c3.8,0,5.6,2.3,7.4,4.6c1.7,2.1,3.2,4.1,6.4,4.1
		s4.7-2,6.4-4.1c1.8-2.2,3.6-4.6,7.3-4.6c3.8,0,5.6,2.3,7.3,4.6c1.7,2.1,3.2,4.1,6.4,4.1s4.7-2,6.4-4.1c1.8-2.2,3.6-4.6,7.4-4.6
		s5.6,2.3,7.4,4.6c1.7,2.1,3.2,4.1,6.4,4.1s4.7-2,6.4-4.1c1.8-2.2,3.6-4.6,7.4-4.6s5.6,2.3,7.4,4.6c1.7,2.1,3.2,4.1,6.4,4.1
		s4.7-2,6.4-4.1c1.8-2.2,3.6-4.6,7.4-4.6s5.6,2.3,7.4,4.6c1.7,2.1,3.2,4.1,6.4,4.1s4.7-2,6.4-4.1c1.8-2.2,3.6-4.6,7.4-4.6v0.9
		c-3.1,0-4.7,2-6.4,4.1C-475.9-191.2-477.7-189-481.5-189z"/>
	<path id="Path_433" class="st1" d="M-481.5-181.3c-3.8,0-5.6-2.3-7.4-4.6c-1.7-2.1-3.2-4.1-6.4-4.1s-4.7,2-6.4,4.1
		c-1.8,2.2-3.6,4.6-7.4,4.6s-5.6-2.3-7.4-4.6c-1.7-2.1-3.2-4.1-6.4-4.1s-4.7,2-6.4,4.1c-1.8,2.2-3.6,4.6-7.4,4.6s-5.6-2.3-7.4-4.6
		c-1.7-2.1-3.2-4.1-6.4-4.1s-4.7,2-6.4,4.1c-1.8,2.2-3.6,4.6-7.4,4.6s-5.6-2.3-7.3-4.6c-1.7-2.1-3.2-4.1-6.4-4.1s-4.7,2-6.4,4.1
		c-1.8,2.3-3.7,4.6-7.4,4.6c-3.8,0-5.6-2.3-7.4-4.6c-1.7-2.1-3.2-4.1-6.4-4.1v-0.9c3.8,0,5.6,2.3,7.4,4.6c1.7,2.1,3.2,4.1,6.4,4.1
		s4.7-2,6.4-4.1c1.8-2.2,3.6-4.6,7.3-4.6c3.8,0,5.6,2.3,7.3,4.6c1.7,2.1,3.2,4.1,6.4,4.1s4.7-2,6.4-4.1c1.8-2.2,3.6-4.6,7.4-4.6
		s5.6,2.3,7.4,4.6c1.7,2.1,3.2,4.1,6.4,4.1s4.7-2,6.4-4.1c1.8-2.2,3.6-4.6,7.4-4.6s5.6,2.3,7.4,4.6c1.7,2.1,3.2,4.1,6.4,4.1
		s4.7-2,6.4-4.1c1.8-2.2,3.6-4.6,7.4-4.6s5.6,2.3,7.4,4.6c1.7,2.1,3.2,4.1,6.4,4.1s4.7-2,6.4-4.1c1.8-2.2,3.6-4.6,7.4-4.6v0.9
		c-3.1,0-4.7,2-6.4,4.1C-475.9-183.6-477.7-181.3-481.5-181.3z"/>
	<path id="Path_434" class="st1" d="M-481.5-173.6c-3.8,0-5.6-2.3-7.4-4.6c-1.7-2.1-3.2-4.1-6.4-4.1s-4.7,2-6.4,4.1
		c-1.8,2.2-3.6,4.6-7.4,4.6s-5.6-2.3-7.4-4.6c-1.7-2.1-3.2-4.1-6.4-4.1s-4.7,2-6.4,4.1c-1.8,2.2-3.6,4.6-7.4,4.6s-5.6-2.3-7.4-4.6
		c-1.7-2.1-3.2-4.1-6.4-4.1s-4.7,2-6.4,4.1c-1.8,2.2-3.6,4.6-7.4,4.6s-5.6-2.3-7.3-4.6c-1.7-2.1-3.2-4.1-6.4-4.1s-4.7,2-6.4,4.1
		c-1.8,2.2-3.6,4.6-7.3,4.6c-3.8,0-5.6-2.3-7.4-4.6c-1.7-2.1-3.2-4.1-6.4-4.1v-0.9c3.8,0,5.6,2.3,7.4,4.6c1.7,2.1,3.2,4.1,6.4,4.1
		s4.7-2,6.4-4.1c1.8-2.2,3.6-4.6,7.3-4.6c3.8,0,5.6,2.3,7.3,4.6c1.7,2.1,3.2,4.1,6.4,4.1s4.7-2,6.4-4.1c1.8-2.2,3.6-4.6,7.4-4.6
		s5.6,2.3,7.4,4.6c1.7,2.1,3.2,4.1,6.4,4.1s4.7-2,6.4-4.1c1.8-2.2,3.6-4.6,7.4-4.6s5.6,2.3,7.4,4.6c1.7,2.1,3.2,4.1,6.4,4.1
		s4.7-2,6.4-4.1c1.8-2.2,3.6-4.6,7.4-4.6s5.6,2.3,7.4,4.6c1.7,2.1,3.2,4.1,6.4,4.1s4.7-2,6.4-4.1c1.8-2.2,3.6-4.6,7.4-4.6v0.9
		c-3.1,0-4.7,2-6.4,4.1C-475.9-175.9-477.7-173.6-481.5-173.6z"/>
	<path id="Path_435" class="st1" d="M-481.5-165.9c-3.8,0-5.6-2.3-7.4-4.6c-1.7-2.1-3.2-4.1-6.4-4.1s-4.7,2-6.4,4.1
		c-1.8,2.2-3.6,4.6-7.4,4.6s-5.6-2.3-7.4-4.6c-1.7-2.1-3.2-4.1-6.4-4.1s-4.7,2-6.4,4.1c-1.8,2.2-3.6,4.6-7.4,4.6s-5.6-2.3-7.4-4.6
		c-1.7-2.1-3.2-4.1-6.4-4.1s-4.7,2-6.4,4.1c-1.8,2.2-3.6,4.6-7.4,4.6s-5.6-2.3-7.3-4.6c-1.7-2.1-3.2-4.1-6.4-4.1s-4.7,2-6.4,4.1
		c-1.8,2.2-3.6,4.6-7.3,4.6c-3.8,0-5.6-2.3-7.4-4.6c-1.7-2.1-3.2-4.1-6.4-4.1v-0.9c3.8,0,5.6,2.3,7.4,4.6c1.7,2.1,3.2,4.1,6.4,4.1
		s4.7-2,6.4-4.1c1.8-2.2,3.6-4.6,7.3-4.6c3.8,0,5.6,2.3,7.3,4.6c1.7,2.1,3.2,4.1,6.4,4.1s4.7-2,6.4-4.1c1.8-2.2,3.6-4.6,7.4-4.6
		s5.6,2.3,7.4,4.6c1.7,2.1,3.2,4.1,6.4,4.1s4.7-2,6.4-4.1c1.8-2.2,3.6-4.6,7.4-4.6s5.6,2.3,7.4,4.6c1.7,2.1,3.2,4.1,6.4,4.1
		s4.7-2,6.4-4.1c1.8-2.2,3.6-4.6,7.4-4.6s5.6,2.3,7.4,4.6c1.7,2.1,3.2,4.1,6.4,4.1s4.7-2,6.4-4.1c1.8-2.2,3.6-4.6,7.4-4.6v0.9
		c-3.1,0-4.7,2-6.4,4.1C-475.9-168.2-477.7-165.9-481.5-165.9z"/>
	<path id="Path_436" class="st1" d="M-481.5-158.2c-3.8,0-5.6-2.3-7.4-4.6c-1.7-2.1-3.2-4.1-6.4-4.1s-4.7,2-6.4,4.1
		c-1.8,2.2-3.6,4.6-7.4,4.6s-5.6-2.3-7.4-4.6c-1.7-2.1-3.2-4.1-6.4-4.1s-4.7,2-6.4,4.1c-1.8,2.2-3.6,4.6-7.4,4.6s-5.6-2.3-7.4-4.6
		c-1.7-2.1-3.2-4.1-6.4-4.1s-4.7,2-6.4,4.1c-1.8,2.2-3.6,4.6-7.4,4.6s-5.6-2.3-7.3-4.6c-1.7-2.1-3.2-4.1-6.4-4.1s-4.7,2-6.4,4.1
		c-1.8,2.2-3.6,4.6-7.3,4.6c-3.8,0-5.6-2.3-7.4-4.6c-1.7-2.1-3.2-4.1-6.4-4.1v-0.9c3.8,0,5.6,2.3,7.4,4.6c1.7,2.1,3.2,4.1,6.4,4.1
		s4.7-2,6.4-4.1c1.8-2.2,3.6-4.6,7.3-4.6c3.8,0,5.6,2.3,7.3,4.6c1.7,2.1,3.2,4.1,6.4,4.1s4.7-2,6.4-4.1c1.8-2.2,3.6-4.6,7.4-4.6
		s5.6,2.3,7.4,4.6c1.7,2.1,3.2,4.1,6.4,4.1s4.7-2,6.4-4.1c1.8-2.2,3.6-4.6,7.4-4.6s5.6,2.3,7.4,4.6c1.7,2.1,3.2,4.1,6.4,4.1
		s4.7-2,6.4-4.1c1.8-2.2,3.6-4.6,7.4-4.6s5.6,2.3,7.4,4.6c1.7,2.1,3.2,4.1,6.4,4.1s4.7-2,6.4-4.1c1.8-2.2,3.6-4.6,7.4-4.6v0.9
		c-3.1,0-4.7,2-6.4,4.1C-475.9-160.5-477.7-158.2-481.5-158.2z"/>
	<path id="Path_437" class="st1" d="M-481.5-150.5c-3.8,0-5.6-2.3-7.4-4.6c-1.7-2.1-3.2-4.1-6.4-4.1s-4.7,2-6.4,4.1
		c-1.8,2.2-3.6,4.6-7.4,4.6s-5.6-2.3-7.4-4.6c-1.7-2.1-3.2-4.1-6.4-4.1s-4.7,2-6.4,4.1c-1.8,2.2-3.6,4.6-7.4,4.6s-5.6-2.3-7.4-4.6
		c-1.7-2.1-3.2-4.1-6.4-4.1s-4.7,2-6.4,4.1c-1.8,2.2-3.6,4.6-7.4,4.6s-5.6-2.3-7.3-4.6c-1.7-2.1-3.2-4.1-6.4-4.1s-4.7,2-6.4,4.1
		c-1.8,2.2-3.6,4.6-7.3,4.6c-3.8,0-5.6-2.3-7.4-4.6c-1.7-2.1-3.2-4.1-6.4-4.1v-0.9c3.8,0,5.6,2.3,7.4,4.6c1.7,2.1,3.2,4.1,6.4,4.1
		s4.7-2,6.4-4.1c1.8-2.2,3.6-4.6,7.3-4.6c3.8,0,5.6,2.3,7.3,4.6c1.7,2.1,3.2,4.1,6.4,4.1s4.7-2,6.4-4.1c1.8-2.2,3.6-4.6,7.4-4.6
		s5.6,2.3,7.4,4.6c1.7,2.1,3.2,4.1,6.4,4.1s4.7-2,6.4-4.1c1.8-2.2,3.6-4.6,7.4-4.6s5.6,2.3,7.4,4.6c1.7,2.1,3.2,4.1,6.4,4.1
		s4.7-2,6.4-4.1c1.8-2.2,3.6-4.6,7.4-4.6s5.6,2.3,7.4,4.6c1.7,2.1,3.2,4.1,6.4,4.1s4.7-2,6.4-4.1c1.8-2.2,3.6-4.6,7.4-4.6v0.9
		c-3.1,0-4.7,2-6.4,4.1C-475.9-152.8-477.7-150.5-481.5-150.5z"/>
	<path id="Path_438" class="st1" d="M-481.9-227.9c-3.8,0-5.6-2.3-7.4-4.6c-1.7-2.1-3.2-4.1-6.4-4.1s-4.7,2-6.4,4.1
		c-1.8,2.2-3.6,4.6-7.4,4.6s-5.6-2.3-7.4-4.6c-1.7-2.1-3.2-4.1-6.4-4.1s-4.7,2-6.4,4.1c-1.8,2.2-3.6,4.6-7.4,4.6s-5.5-2.3-7.3-4.6
		c-1.7-2.1-3.2-4.1-6.4-4.1c-3.2,0-4.7,2-6.4,4.1c-1.8,2.2-3.6,4.6-7.4,4.6s-5.6-2.3-7.3-4.6c-1.7-2.1-3.2-4.1-6.4-4.1
		s-4.7,2-6.4,4.1c-1.8,2.2-3.6,4.6-7.3,4.6c-3.8,0-5.6-2.3-7.4-4.6c-1.7-2.1-3.3-4.1-6.4-4.1v-0.9c3.8,0,5.6,2.3,7.4,4.6
		c1.7,2.1,3.2,4.1,6.4,4.1s4.7-2,6.4-4.1c1.8-2.3,3.6-4.6,7.4-4.6s5.6,2.3,7.3,4.6c1.7,2.1,3.2,4.1,6.4,4.1s4.7-2,6.4-4.1
		c1.8-2.3,3.7-4.6,7.4-4.6c3.8,0,5.6,2.3,7.4,4.6c1.7,2.1,3.2,4.1,6.4,4.1s4.7-2,6.4-4.1c1.8-2.2,3.6-4.6,7.4-4.6s5.6,2.3,7.4,4.6
		c1.7,2.1,3.2,4.1,6.4,4.1s4.7-2,6.4-4.1c1.8-2.2,3.6-4.6,7.4-4.6s5.6,2.3,7.4,4.6c1.7,2.1,3.2,4.1,6.4,4.1s4.7-2,6.4-4.1
		c1.8-2.3,3.6-4.6,7.4-4.6v0.9c-3.1,0-4.7,2-6.4,4.1C-476.3-230.2-478.1-227.9-481.9-227.9z"/>
	<path id="Path_439" class="st1" d="M-481.9-220.3c-3.8,0-5.6-2.3-7.4-4.6c-1.7-2.1-3.2-4.1-6.4-4.1s-4.7,2-6.4,4.1
		c-1.8,2.2-3.6,4.6-7.4,4.6s-5.6-2.3-7.4-4.6c-1.7-2.1-3.2-4.1-6.4-4.1s-4.7,2-6.4,4.1c-1.8,2.2-3.6,4.6-7.4,4.6s-5.6-2.3-7.4-4.6
		c-1.7-2.1-3.2-4.1-6.4-4.1s-4.7,2-6.4,4.1c-1.8,2.2-3.6,4.6-7.4,4.6s-5.6-2.3-7.3-4.6c-1.7-2.1-3.2-4.1-6.4-4.1s-4.7,2-6.4,4.1
		c-1.8,2.2-3.6,4.6-7.3,4.6c-3.8,0-5.6-2.3-7.4-4.6c-1.7-2.1-3.3-4.1-6.4-4.1v-0.9c3.8,0,5.6,2.3,7.4,4.6c1.7,2.1,3.2,4.1,6.4,4.1
		s4.7-2,6.4-4.1c1.8-2.2,3.6-4.6,7.3-4.6c3.8,0,5.6,2.3,7.3,4.6c1.7,2.1,3.2,4.1,6.4,4.1s4.7-2,6.4-4.1c1.8-2.2,3.6-4.6,7.4-4.6
		s5.6,2.3,7.4,4.6c1.7,2.1,3.2,4.1,6.4,4.1s4.7-2,6.4-4.1c1.8-2.2,3.6-4.6,7.4-4.6s5.6,2.3,7.4,4.6c1.7,2.1,3.2,4.1,6.4,4.1
		s4.7-2,6.4-4.1c1.8-2.2,3.6-4.6,7.4-4.6s5.6,2.3,7.4,4.6c1.7,2.1,3.2,4.1,6.4,4.1s4.7-2,6.4-4.1c1.8-2.2,3.6-4.6,7.4-4.6v0.9
		c-3.1,0-4.7,2-6.4,4.1C-476.3-222.6-478.1-220.3-481.9-220.3z"/>
	<path id="Path_440" class="st1" d="M-481.9-212.6c-3.8,0-5.6-2.3-7.4-4.6c-1.7-2.1-3.2-4.1-6.4-4.1s-4.7,2-6.4,4.1
		c-1.8,2.2-3.6,4.6-7.4,4.6s-5.6-2.3-7.4-4.6c-1.7-2.1-3.2-4.1-6.4-4.1s-4.7,2-6.4,4.1c-1.8,2.2-3.6,4.6-7.4,4.6s-5.6-2.3-7.4-4.6
		c-1.7-2.1-3.2-4.1-6.4-4.1s-4.7,2-6.4,4.1c-1.8,2.2-3.6,4.6-7.4,4.6s-5.6-2.3-7.3-4.6c-1.7-2.1-3.2-4.1-6.4-4.1s-4.7,2-6.4,4.1
		c-1.8,2.2-3.6,4.6-7.3,4.6c-3.8,0-5.6-2.3-7.4-4.6c-1.7-2.1-3.2-4.1-6.4-4.1v-0.9c3.8,0,5.6,2.3,7.4,4.6c1.7,2.1,3.2,4.1,6.4,4.1
		s4.7-2,6.4-4.1c1.8-2.2,3.6-4.6,7.3-4.6c3.8,0,5.6,2.3,7.3,4.6c1.7,2.1,3.2,4.1,6.4,4.1s4.7-2,6.4-4.1c1.8-2.2,3.6-4.6,7.4-4.6
		s5.6,2.3,7.4,4.6c1.7,2.1,3.2,4.1,6.4,4.1s4.7-2,6.4-4.1c1.8-2.2,3.6-4.6,7.4-4.6s5.6,2.3,7.4,4.6c1.7,2.1,3.2,4.1,6.4,4.1
		s4.7-2,6.4-4.1c1.8-2.2,3.6-4.6,7.4-4.6s5.6,2.3,7.4,4.6c1.7,2.1,3.2,4.1,6.4,4.1s4.7-2,6.4-4.1c1.8-2.2,3.6-4.6,7.4-4.6v0.9
		c-3.1,0-4.7,2-6.4,4.1C-476.3-214.9-478.1-212.6-481.9-212.6z"/>
	<path id="Path_441" class="st1" d="M-481.9-204.9c-3.8,0-5.6-2.3-7.4-4.6c-1.7-2.1-3.2-4.1-6.4-4.1s-4.7,2-6.4,4.1
		c-1.8,2.2-3.6,4.6-7.4,4.6s-5.6-2.3-7.4-4.6c-1.7-2.1-3.2-4.1-6.4-4.1s-4.7,2-6.4,4.1c-1.8,2.2-3.6,4.6-7.4,4.6s-5.6-2.3-7.4-4.6
		c-1.7-2.1-3.2-4.1-6.4-4.1s-4.7,2-6.4,4.1c-1.8,2.2-3.6,4.6-7.4,4.6s-5.6-2.3-7.3-4.6c-1.7-2.1-3.2-4.1-6.4-4.1s-4.7,2-6.4,4.1
		c-1.8,2.2-3.6,4.6-7.3,4.6c-3.8,0-5.6-2.3-7.4-4.6c-1.7-2.1-3.2-4.1-6.4-4.1v-0.9c3.8,0,5.6,2.3,7.4,4.6c1.7,2.1,3.2,4.1,6.4,4.1
		s4.7-2,6.4-4.1c1.8-2.2,3.6-4.6,7.3-4.6c3.8,0,5.6,2.3,7.3,4.6c1.7,2.1,3.2,4.1,6.4,4.1s4.7-2,6.4-4.1c1.8-2.2,3.6-4.6,7.4-4.6
		s5.6,2.3,7.4,4.6c1.7,2.1,3.2,4.1,6.4,4.1s4.7-2,6.4-4.1c1.8-2.2,3.6-4.6,7.4-4.6s5.6,2.3,7.4,4.6c1.7,2.1,3.2,4.1,6.4,4.1
		s4.7-2,6.4-4.1c1.8-2.2,3.6-4.6,7.4-4.6s5.6,2.3,7.4,4.6c1.7,2.1,3.2,4.1,6.4,4.1s4.7-2,6.4-4.1c1.8-2.2,3.6-4.6,7.4-4.6v0.9
		c-3.1,0-4.7,2-6.4,4.1C-476.3-207.2-478.1-204.9-481.9-204.9z"/>
	<path id="Path_442" class="st1" d="M-481.9-197.2c-3.8,0-5.6-2.3-7.4-4.6c-1.7-2.1-3.2-4.1-6.4-4.1s-4.7,2-6.4,4.1
		c-1.8,2.2-3.6,4.6-7.4,4.6s-5.6-2.3-7.4-4.6c-1.7-2.1-3.2-4.1-6.4-4.1s-4.7,2-6.4,4.1c-1.8,2.2-3.6,4.6-7.4,4.6s-5.6-2.3-7.4-4.6
		c-1.7-2.1-3.2-4.1-6.4-4.1s-4.7,2-6.4,4.1c-1.8,2.2-3.6,4.6-7.4,4.6s-5.6-2.3-7.3-4.6c-1.7-2.1-3.2-4.1-6.4-4.1s-4.7,2-6.4,4.1
		c-1.8,2.2-3.6,4.6-7.3,4.6c-3.8,0-5.6-2.3-7.4-4.6c-1.7-2.1-3.2-4.1-6.4-4.1v-0.9c3.8,0,5.6,2.3,7.4,4.6c1.7,2.1,3.2,4.1,6.4,4.1
		s4.7-2,6.4-4.1c1.8-2.2,3.6-4.6,7.3-4.6c3.8,0,5.6,2.3,7.3,4.6c1.7,2.1,3.2,4.1,6.4,4.1s4.7-2,6.4-4.1c1.8-2.2,3.6-4.6,7.4-4.6
		s5.6,2.3,7.4,4.6c1.7,2.1,3.2,4.1,6.4,4.1s4.7-2,6.4-4.1c1.8-2.2,3.6-4.6,7.4-4.6s5.6,2.3,7.4,4.6c1.7,2.1,3.2,4.1,6.4,4.1
		s4.7-2,6.4-4.1c1.8-2.2,3.6-4.6,7.4-4.6s5.6,2.3,7.4,4.6c1.7,2.1,3.2,4.1,6.4,4.1s4.7-2,6.4-4.1c1.8-2.2,3.6-4.6,7.4-4.6v0.9
		c-3.1,0-4.7,2-6.4,4.1C-476.3-199.6-478.1-197.2-481.9-197.2z"/>
	<path id="Path_443" class="st1" d="M-481.9-189.5c-3.8,0-5.6-2.3-7.4-4.6c-1.7-2.1-3.2-4.1-6.4-4.1s-4.7,2-6.4,4.1
		c-1.8,2.2-3.6,4.6-7.4,4.6s-5.6-2.3-7.4-4.6c-1.7-2.1-3.2-4.1-6.4-4.1s-4.7,2-6.4,4.1c-1.8,2.2-3.6,4.6-7.4,4.6s-5.6-2.3-7.4-4.6
		c-1.7-2.1-3.2-4.1-6.4-4.1s-4.7,2-6.4,4.1c-1.8,2.2-3.6,4.6-7.4,4.6s-5.6-2.3-7.3-4.6c-1.7-2.1-3.2-4.1-6.4-4.1s-4.7,2-6.4,4.1
		c-1.8,2.2-3.6,4.6-7.3,4.6c-3.8,0-5.6-2.3-7.4-4.6c-1.7-2.1-3.2-4.1-6.4-4.1v-0.9c3.8,0,5.6,2.3,7.4,4.6c1.7,2.1,3.2,4.1,6.4,4.1
		s4.7-2,6.4-4.1c1.8-2.2,3.6-4.6,7.3-4.6c3.8,0,5.6,2.3,7.3,4.6c1.7,2.1,3.2,4.1,6.4,4.1s4.7-2,6.4-4.1c1.8-2.2,3.6-4.6,7.4-4.6
		s5.6,2.3,7.4,4.6c1.7,2.1,3.2,4.1,6.4,4.1s4.7-2,6.4-4.1c1.8-2.2,3.6-4.6,7.4-4.6s5.6,2.3,7.4,4.6c1.7,2.1,3.2,4.1,6.4,4.1
		s4.7-2,6.4-4.1c1.8-2.2,3.6-4.6,7.4-4.6s5.6,2.3,7.4,4.6c1.7,2.1,3.2,4.1,6.4,4.1s4.7-2,6.4-4.1c1.8-2.2,3.6-4.6,7.4-4.6v0.9
		c-3.1,0-4.7,2-6.4,4.1C-476.3-191.9-478.1-189.5-481.9-189.5z"/>
	<path id="Path_444" class="st1" d="M-481.9-181.8c-3.8,0-5.6-2.3-7.4-4.6c-1.7-2.1-3.2-4.1-6.4-4.1s-4.7,2-6.4,4.1
		c-1.8,2.2-3.6,4.6-7.4,4.6s-5.6-2.3-7.4-4.6c-1.7-2.1-3.2-4.1-6.4-4.1s-4.7,2-6.4,4.1c-1.8,2.2-3.6,4.6-7.4,4.6s-5.6-2.3-7.4-4.6
		c-1.7-2.1-3.2-4.1-6.4-4.1s-4.7,2-6.4,4.1c-1.8,2.2-3.6,4.6-7.4,4.6s-5.6-2.3-7.3-4.6c-1.7-2.1-3.2-4.1-6.4-4.1s-4.7,2-6.4,4.1
		c-1.8,2.2-3.6,4.6-7.3,4.6c-3.8,0-5.6-2.3-7.4-4.6c-1.7-2.1-3.3-4.1-6.4-4.1v-0.9c3.8,0,5.6,2.3,7.4,4.6c1.7,2.1,3.2,4.1,6.4,4.1
		s4.7-2,6.4-4.1c1.8-2.2,3.6-4.6,7.3-4.6c3.8,0,5.6,2.3,7.3,4.6c1.7,2.1,3.2,4.1,6.4,4.1s4.7-2,6.4-4.1c1.8-2.2,3.6-4.6,7.4-4.6
		s5.6,2.3,7.4,4.6c1.7,2.1,3.2,4.1,6.4,4.1s4.7-2,6.4-4.1c1.8-2.2,3.6-4.6,7.4-4.6s5.6,2.3,7.4,4.6c1.7,2.1,3.2,4.1,6.4,4.1
		s4.7-2,6.4-4.1c1.8-2.2,3.6-4.6,7.4-4.6s5.6,2.3,7.4,4.6c1.7,2.1,3.2,4.1,6.4,4.1s4.7-2,6.4-4.1c1.8-2.2,3.6-4.6,7.4-4.6v0.9
		c-3.1,0-4.7,2-6.4,4.1C-476.3-184.2-478.1-181.8-481.9-181.8z"/>
	<path id="Path_445" class="st1" d="M-481.9-174.2c-3.8,0-5.6-2.3-7.4-4.6c-1.7-2.1-3.2-4.1-6.4-4.1s-4.7,2-6.4,4.1
		c-1.8,2.2-3.6,4.6-7.4,4.6s-5.6-2.3-7.4-4.6c-1.7-2.1-3.2-4.1-6.4-4.1s-4.7,2-6.4,4.1c-1.8,2.2-3.6,4.6-7.4,4.6s-5.6-2.3-7.4-4.6
		c-1.7-2.1-3.2-4.1-6.4-4.1s-4.7,2-6.4,4.1c-1.8,2.2-3.6,4.6-7.4,4.6s-5.6-2.3-7.3-4.6c-1.7-2.1-3.2-4.1-6.4-4.1s-4.7,2-6.4,4.1
		c-1.8,2.2-3.6,4.6-7.3,4.6c-3.8,0-5.6-2.3-7.4-4.6c-1.7-2.1-3.2-4.1-6.4-4.1v-0.9c3.8,0,5.6,2.3,7.4,4.6c1.7,2.1,3.2,4.1,6.4,4.1
		s4.7-2,6.4-4.1c1.8-2.2,3.6-4.6,7.3-4.6c3.8,0,5.6,2.3,7.3,4.6c1.7,2.1,3.2,4.1,6.4,4.1s4.7-2,6.4-4.1c1.8-2.2,3.6-4.6,7.4-4.6
		s5.6,2.3,7.4,4.6c1.7,2.1,3.2,4.1,6.4,4.1s4.7-2,6.4-4.1c1.8-2.2,3.6-4.6,7.4-4.6s5.6,2.3,7.4,4.6c1.7,2.1,3.2,4.1,6.4,4.1
		s4.7-2,6.4-4.1c1.8-2.2,3.6-4.6,7.4-4.6s5.6,2.3,7.4,4.6c1.7,2.1,3.2,4.1,6.4,4.1s4.7-2,6.4-4.1c1.8-2.2,3.6-4.6,7.4-4.6v0.9
		c-3.1,0-4.7,2-6.4,4.1C-476.3-176.5-478.1-174.2-481.9-174.2z"/>
	<path id="Path_446" class="st1" d="M-481.9-166.5c-3.8,0-5.6-2.3-7.4-4.6c-1.7-2.1-3.2-4.1-6.4-4.1s-4.7,2-6.4,4.1
		c-1.8,2.2-3.6,4.6-7.4,4.6s-5.6-2.3-7.4-4.6c-1.7-2.1-3.2-4.1-6.4-4.1s-4.7,2-6.4,4.1c-1.8,2.2-3.6,4.6-7.4,4.6s-5.6-2.3-7.4-4.6
		c-1.7-2.1-3.2-4.1-6.4-4.1s-4.7,2-6.4,4.1c-1.8,2.2-3.6,4.6-7.4,4.6s-5.6-2.3-7.3-4.6c-1.7-2.1-3.2-4.1-6.4-4.1s-4.7,2-6.4,4.1
		c-1.8,2.2-3.6,4.6-7.3,4.6c-3.8,0-5.6-2.3-7.4-4.6c-1.7-2.1-3.2-4.1-6.4-4.1v-0.9c3.8,0,5.6,2.3,7.4,4.6c1.7,2.1,3.2,4.1,6.4,4.1
		s4.7-2,6.4-4.1c1.8-2.2,3.6-4.6,7.3-4.6c3.8,0,5.6,2.3,7.3,4.6c1.7,2.1,3.2,4.1,6.4,4.1s4.7-2,6.4-4.1c1.8-2.2,3.6-4.6,7.4-4.6
		s5.6,2.3,7.4,4.6c1.7,2.1,3.2,4.1,6.4,4.1s4.7-2,6.4-4.1c1.8-2.2,3.6-4.6,7.4-4.6s5.6,2.3,7.4,4.6c1.7,2.1,3.2,4.1,6.4,4.1
		s4.7-2,6.4-4.1c1.8-2.2,3.6-4.6,7.4-4.6s5.6,2.3,7.4,4.6c1.7,2.1,3.2,4.1,6.4,4.1s4.7-2,6.4-4.1c1.8-2.2,3.6-4.6,7.4-4.6v0.9
		c-3.1,0-4.7,2-6.4,4.1C-476.3-168.8-478.1-166.5-481.9-166.5z"/>
	<path id="Path_447" class="st1" d="M-481.9-158.8c-3.8,0-5.6-2.3-7.4-4.6c-1.7-2.1-3.2-4.1-6.4-4.1s-4.7,2-6.4,4.1
		c-1.8,2.2-3.6,4.6-7.4,4.6s-5.6-2.3-7.4-4.6c-1.7-2.1-3.2-4.1-6.4-4.1s-4.7,2-6.4,4.1c-1.8,2.2-3.6,4.6-7.4,4.6s-5.6-2.3-7.4-4.6
		c-1.7-2.1-3.2-4.1-6.4-4.1s-4.7,2-6.4,4.1c-1.8,2.2-3.6,4.6-7.4,4.6s-5.6-2.3-7.3-4.6c-1.7-2.1-3.2-4.1-6.4-4.1s-4.7,2-6.4,4.1
		c-1.8,2.2-3.6,4.6-7.3,4.6c-3.8,0-5.6-2.3-7.4-4.6c-1.7-2.1-3.2-4.1-6.4-4.1v-0.9c3.8,0,5.6,2.3,7.4,4.6c1.7,2.1,3.2,4.1,6.4,4.1
		s4.7-2,6.4-4.1c1.8-2.2,3.6-4.6,7.3-4.6c3.8,0,5.6,2.3,7.3,4.6c1.7,2.1,3.2,4.1,6.4,4.1s4.7-2,6.4-4.1c1.8-2.2,3.6-4.6,7.4-4.6
		s5.6,2.3,7.4,4.6c1.7,2.1,3.2,4.1,6.4,4.1s4.7-2,6.4-4.1c1.8-2.2,3.6-4.6,7.4-4.6s5.6,2.3,7.4,4.6c1.7,2.1,3.2,4.1,6.4,4.1
		s4.7-2,6.4-4.1c1.8-2.2,3.6-4.6,7.4-4.6s5.6,2.3,7.4,4.6c1.7,2.1,3.2,4.1,6.4,4.1s4.7-2,6.4-4.1c1.8-2.2,3.6-4.6,7.4-4.6v0.9
		c-3.1,0-4.7,2-6.4,4.1C-476.3-161.1-478.1-158.8-481.9-158.8z"/>
	<path id="Path_448" class="st1" d="M-481.9-151.2c-3.8,0-5.6-2.3-7.4-4.6c-1.7-2.1-3.2-4.1-6.4-4.1s-4.7,2-6.4,4.1
		c-1.8,2.2-3.6,4.6-7.4,4.6s-5.6-2.3-7.4-4.6c-1.7-2.1-3.2-4.1-6.4-4.1s-4.7,2-6.4,4.1c-1.8,2.2-3.6,4.6-7.4,4.6s-5.6-2.3-7.4-4.6
		c-1.7-2.1-3.2-4.1-6.4-4.1s-4.7,2-6.4,4.1c-1.8,2.2-3.6,4.6-7.4,4.6s-5.6-2.3-7.3-4.6c-1.7-2.1-3.2-4.1-6.4-4.1s-4.7,2-6.4,4.1
		c-1.8,2.2-3.6,4.6-7.3,4.6c-3.8,0-5.6-2.3-7.4-4.6c-1.7-2.1-3.2-4.1-6.4-4.1v-0.9c3.8,0,5.6,2.3,7.4,4.6c1.7,2.1,3.2,4.1,6.4,4.1
		s4.7-2,6.4-4.1c1.8-2.2,3.6-4.6,7.3-4.6c3.8,0,5.6,2.3,7.3,4.6c1.7,2.1,3.2,4.1,6.4,4.1s4.7-2,6.4-4.1c1.8-2.2,3.6-4.6,7.4-4.6
		s5.6,2.3,7.4,4.6c1.7,2.1,3.2,4.1,6.4,4.1s4.7-2,6.4-4.1c1.8-2.2,3.6-4.6,7.4-4.6s5.6,2.3,7.4,4.6c1.7,2.1,3.2,4.1,6.4,4.1
		s4.7-2,6.4-4.1c1.8-2.2,3.6-4.6,7.4-4.6s5.6,2.3,7.4,4.6c1.7,2.1,3.2,4.1,6.4,4.1s4.7-2,6.4-4.1c1.8-2.2,3.6-4.6,7.4-4.6v0.9
		c-3.1,0-4.7,2-6.4,4.1C-476.3-153.5-478.1-151.2-481.9-151.2z"/>
</g>
</svg>
