<?xml version="1.0" encoding="utf-8"?>
<!-- Generator: Adobe Illustrator 27.0.1, SVG Export Plug-In . SVG Version: 6.00 Build 0)  -->
<svg version="1.1" id="Layer_1" xmlns="http://www.w3.org/2000/svg" xmlns:xlink="http://www.w3.org/1999/xlink" x="0px" y="0px"
	 viewBox="0 0 211.2 246.3" style="enable-background:new 0 0 211.2 246.3;" xml:space="preserve">
<style type="text/css">
	.st0{opacity:0.15;}
	.st1{fill:#295271;}
</style>
<g id="Group_17420" transform="translate(-605.414 -213.705)">
	<g id="Group_204" transform="translate(1101.301 213.705)" class="st0">
		<path id="Path_27" class="st1" d="M-285,4.2v1h-1.4v1.6h-0.9V5.2h-1.4v-1h1.4V2.7h0.9v1.6H-285z"/>
		<path id="Path_28" class="st1" d="M-285,16.7v1h-1.4v1.6h-0.9v-1.6h-1.4v-1h1.4v-1.6h0.9v1.6H-285z"/>
		<path id="Path_29" class="st1" d="M-285,29.1v1h-1.4v1.6h-0.9v-1.6h-1.4v-1h1.4v-1.6h0.9v1.6H-285z"/>
		<path id="Path_30" class="st1" d="M-285,41.6v1h-1.4v1.6h-0.9v-1.6h-1.4v-1h1.4V40h0.9v1.6H-285z"/>
		<path id="Path_31" class="st1" d="M-285,54.1v1h-1.4v1.6h-0.9v-1.6h-1.4v-1h1.4v-1.6h0.9v1.6L-285,54.1z"/>
		<path id="Path_32" class="st1" d="M-285,66.5v1h-1.4v1.6h-0.9v-1.6h-1.4v-1h1.4V65h0.9v1.6H-285z"/>
		<path id="Path_33" class="st1" d="M-285,79v1h-1.4v1.6h-0.9V80h-1.4v-1h1.4v-1.6h0.9V79H-285z"/>
		<path id="Path_34" class="st1" d="M-285,91.5v1h-1.4v1.6h-0.9v-1.6h-1.4v-1h1.4v-1.6h0.9v1.6H-285z"/>
		<path id="Path_35" class="st1" d="M-285,103.9v1h-1.4v1.6h-0.9V105h-1.4v-1h1.4v-1.6h0.9v1.6H-285z"/>
		<path id="Path_36" class="st1" d="M-285,116.4v1h-1.4v1.6h-0.9v-1.6h-1.4v-1h1.4v-1.6h0.9v1.6H-285z"/>
		<path id="Path_37" class="st1" d="M-285,128.9v1h-1.4v1.6h-0.9v-1.6h-1.4v-1h1.4v-1.6h0.9v1.6H-285z"/>
		<path id="Path_38" class="st1" d="M-285,141.3v1h-1.4v1.6h-0.9v-1.6h-1.4v-1h1.4v-1.6h0.9v1.6H-285z"/>
		<path id="Path_39" class="st1" d="M-285,153.8v1h-1.4v1.6h-0.9v-1.6h-1.4v-1h1.4v-1.6h0.9v1.6L-285,153.8z"/>
		<path id="Path_40" class="st1" d="M-285,166.3v1h-1.4v1.6h-0.9v-1.6h-1.4v-1h1.4v-1.6h0.9v1.6L-285,166.3z"/>
		<path id="Path_41" class="st1" d="M-285,178.7v1h-1.4v1.6h-0.9v-1.6h-1.4v-1h1.4v-1.6h0.9v1.6L-285,178.7z"/>
		<path id="Path_42" class="st1" d="M-285,191.2v1h-1.4v1.6h-0.9v-1.6h-1.4v-1h1.4v-1.6h0.9v1.6H-285z"/>
		<path id="Path_43" class="st1" d="M-285,203.6v1h-1.4v1.6h-0.9v-1.6h-1.4v-1h1.4v-1.6h0.9v1.6L-285,203.6z"/>
		<path id="Path_44" class="st1" d="M-285,216.1v1h-1.4v1.6h-0.9v-1.6h-1.4v-1h1.4v-1.6h0.9v1.6H-285z"/>
		<path id="Path_45" class="st1" d="M-285,228.6v1h-1.4v1.6h-0.9v-1.6h-1.4v-1h1.4V227h0.9v1.6H-285z"/>
		<path id="Path_46" class="st1" d="M-285,241v1h-1.4v1.6h-0.9v-1.6h-1.4v-1h1.4v-1.6h0.9v1.6H-285z"/>
		<path id="Path_47" class="st1" d="M-295.9,4.2v1h-1.4v1.6h-0.9V5.2h-1.4v-1h1.4V2.7h0.9v1.6H-295.9z"/>
		<path id="Path_48" class="st1" d="M-295.9,16.7v1h-1.4v1.6h-0.9v-1.6h-1.4v-1h1.4v-1.6h0.9v1.6H-295.9z"/>
		<path id="Path_49" class="st1" d="M-295.9,29.1v1h-1.4v1.6h-0.9v-1.6h-1.4v-1h1.4v-1.6h0.9v1.6H-295.9z"/>
		<path id="Path_50" class="st1" d="M-295.9,41.6v1h-1.4v1.6h-0.9v-1.6h-1.4v-1h1.4V40h0.9v1.6H-295.9z"/>
		<path id="Path_51" class="st1" d="M-295.9,54.1v1h-1.4v1.6h-0.9v-1.6h-1.4v-1h1.4v-1.6h0.9v1.6L-295.9,54.1z"/>
		<path id="Path_52" class="st1" d="M-295.9,66.5v1h-1.4v1.6h-0.9v-1.6h-1.4v-1h1.4V65h0.9v1.6H-295.9z"/>
		<path id="Path_53" class="st1" d="M-295.9,79v1h-1.4v1.6h-0.9V80h-1.4v-1h1.4v-1.6h0.9V79H-295.9z"/>
		<path id="Path_54" class="st1" d="M-295.9,91.5v1h-1.4v1.6h-0.9v-1.6h-1.4v-1h1.4v-1.6h0.9v1.6H-295.9z"/>
		<path id="Path_55" class="st1" d="M-295.9,103.9v1h-1.4v1.6h-0.9V105h-1.4v-1h1.4v-1.6h0.9v1.6H-295.9z"/>
		<path id="Path_56" class="st1" d="M-295.9,116.4v1h-1.4v1.6h-0.9v-1.6h-1.4v-1h1.4v-1.6h0.9v1.6H-295.9z"/>
		<path id="Path_57" class="st1" d="M-295.9,128.9v1h-1.4v1.6h-0.9v-1.6h-1.4v-1h1.4v-1.6h0.9v1.6H-295.9z"/>
		<path id="Path_58" class="st1" d="M-295.9,141.3v1h-1.4v1.6h-0.9v-1.6h-1.4v-1h1.4v-1.6h0.9v1.6H-295.9z"/>
		<path id="Path_59" class="st1" d="M-295.9,153.8v1h-1.4v1.6h-0.9v-1.6h-1.4v-1h1.4v-1.6h0.9v1.6L-295.9,153.8z"/>
		<path id="Path_60" class="st1" d="M-295.9,166.3v1h-1.4v1.6h-0.9v-1.6h-1.4v-1h1.4v-1.6h0.9v1.6L-295.9,166.3z"/>
		<path id="Path_61" class="st1" d="M-295.9,178.7v1h-1.4v1.6h-0.9v-1.6h-1.4v-1h1.4v-1.6h0.9v1.6L-295.9,178.7z"/>
		<path id="Path_62" class="st1" d="M-295.9,191.2v1h-1.4v1.6h-0.9v-1.6h-1.4v-1h1.4v-1.6h0.9v1.6H-295.9z"/>
		<path id="Path_63" class="st1" d="M-295.9,203.6v1h-1.4v1.6h-0.9v-1.6h-1.4v-1h1.4v-1.6h0.9v1.6L-295.9,203.6z"/>
		<path id="Path_64" class="st1" d="M-295.9,216.1v1h-1.4v1.6h-0.9v-1.6h-1.4v-1h1.4v-1.6h0.9v1.6H-295.9z"/>
		<path id="Path_65" class="st1" d="M-295.9,228.6v1h-1.4v1.6h-0.9v-1.6h-1.4v-1h1.4V227h0.9v1.6H-295.9z"/>
		<path id="Path_66" class="st1" d="M-295.9,241v1h-1.4v1.6h-0.9v-1.6h-1.4v-1h1.4v-1.6h0.9v1.6H-295.9z"/>
		<path id="Path_67" class="st1" d="M-306.8,4.2v1h-1.4v1.6h-0.9V5.2h-1.4v-1h1.4V2.7h0.9v1.6H-306.8z"/>
		<path id="Path_68" class="st1" d="M-306.8,16.7v1h-1.4v1.6h-0.9v-1.6h-1.4v-1h1.4v-1.6h0.9v1.6H-306.8z"/>
		<path id="Path_69" class="st1" d="M-306.8,29.1v1h-1.4v1.6h-0.9v-1.6h-1.4v-1h1.4v-1.6h0.9v1.6H-306.8z"/>
		<path id="Path_70" class="st1" d="M-306.8,41.6v1h-1.4v1.6h-0.9v-1.6h-1.4v-1h1.4V40h0.9v1.6H-306.8z"/>
		<path id="Path_71" class="st1" d="M-306.8,54.1v1h-1.4v1.6h-0.9v-1.6h-1.4v-1h1.4v-1.6h0.9v1.6L-306.8,54.1z"/>
		<path id="Path_72" class="st1" d="M-306.8,66.5v1h-1.4v1.6h-0.9v-1.6h-1.4v-1h1.4V65h0.9v1.6H-306.8z"/>
		<path id="Path_73" class="st1" d="M-306.8,79v1h-1.4v1.6h-0.9V80h-1.4v-1h1.4v-1.6h0.9V79H-306.8z"/>
		<path id="Path_74" class="st1" d="M-306.8,91.5v1h-1.4v1.6h-0.9v-1.6h-1.4v-1h1.4v-1.6h0.9v1.6H-306.8z"/>
		<path id="Path_75" class="st1" d="M-306.8,103.9v1h-1.4v1.6h-0.9V105h-1.4v-1h1.4v-1.6h0.9v1.6H-306.8z"/>
		<path id="Path_76" class="st1" d="M-306.8,116.4v1h-1.4v1.6h-0.9v-1.6h-1.4v-1h1.4v-1.6h0.9v1.6H-306.8z"/>
		<path id="Path_77" class="st1" d="M-306.8,128.9v1h-1.4v1.6h-0.9v-1.6h-1.4v-1h1.4v-1.6h0.9v1.6H-306.8z"/>
		<path id="Path_78" class="st1" d="M-306.8,141.3v1h-1.4v1.6h-0.9v-1.6h-1.4v-1h1.4v-1.6h0.9v1.6H-306.8z"/>
		<path id="Path_79" class="st1" d="M-306.8,153.8v1h-1.4v1.6h-0.9v-1.6h-1.4v-1h1.4v-1.6h0.9v1.6L-306.8,153.8z"/>
		<path id="Path_80" class="st1" d="M-306.8,166.3v1h-1.4v1.6h-0.9v-1.6h-1.4v-1h1.4v-1.6h0.9v1.6L-306.8,166.3z"/>
		<path id="Path_81" class="st1" d="M-306.8,178.7v1h-1.4v1.6h-0.9v-1.6h-1.4v-1h1.4v-1.6h0.9v1.6L-306.8,178.7z"/>
		<path id="Path_82" class="st1" d="M-306.8,191.2v1h-1.4v1.6h-0.9v-1.6h-1.4v-1h1.4v-1.6h0.9v1.6H-306.8z"/>
		<path id="Path_83" class="st1" d="M-306.8,203.6v1h-1.4v1.6h-0.9v-1.6h-1.4v-1h1.4v-1.6h0.9v1.6L-306.8,203.6z"/>
		<path id="Path_84" class="st1" d="M-306.8,216.1v1h-1.4v1.6h-0.9v-1.6h-1.4v-1h1.4v-1.6h0.9v1.6H-306.8z"/>
		<path id="Path_85" class="st1" d="M-306.8,228.6v1h-1.4v1.6h-0.9v-1.6h-1.4v-1h1.4V227h0.9v1.6H-306.8z"/>
		<path id="Path_86" class="st1" d="M-306.8,241v1h-1.4v1.6h-0.9v-1.6h-1.4v-1h1.4v-1.6h0.9v1.6H-306.8z"/>
		<path id="Path_87" class="st1" d="M-317.7,4.2v1h-1.4v1.6h-0.9V5.2h-1.4v-1h1.4V2.7h0.9v1.6H-317.7z"/>
		<path id="Path_88" class="st1" d="M-317.7,16.7v1h-1.4v1.6h-0.9v-1.6h-1.4v-1h1.4v-1.6h0.9v1.6H-317.7z"/>
		<path id="Path_89" class="st1" d="M-317.7,29.1v1h-1.4v1.6h-0.9v-1.6h-1.4v-1h1.4v-1.6h0.9v1.6H-317.7z"/>
		<path id="Path_90" class="st1" d="M-317.7,41.6v1h-1.4v1.6h-0.9v-1.6h-1.4v-1h1.4V40h0.9v1.6H-317.7z"/>
		<path id="Path_91" class="st1" d="M-317.7,54.1v1h-1.4v1.6h-0.9v-1.6h-1.4v-1h1.4v-1.6h0.9v1.6L-317.7,54.1z"/>
		<path id="Path_92" class="st1" d="M-317.7,66.5v1h-1.4v1.6h-0.9v-1.6h-1.4v-1h1.4V65h0.9v1.6H-317.7z"/>
		<path id="Path_93" class="st1" d="M-317.7,79v1h-1.4v1.6h-0.9V80h-1.4v-1h1.4v-1.6h0.9V79H-317.7z"/>
		<path id="Path_94" class="st1" d="M-317.7,91.5v1h-1.4v1.6h-0.9v-1.6h-1.4v-1h1.4v-1.6h0.9v1.6H-317.7z"/>
		<path id="Path_95" class="st1" d="M-317.7,103.9v1h-1.4v1.6h-0.9V105h-1.4v-1h1.4v-1.6h0.9v1.6H-317.7z"/>
		<path id="Path_96" class="st1" d="M-317.7,116.4v1h-1.4v1.6h-0.9v-1.6h-1.4v-1h1.4v-1.6h0.9v1.6H-317.7z"/>
		<path id="Path_97" class="st1" d="M-317.7,128.9v1h-1.4v1.6h-0.9v-1.6h-1.4v-1h1.4v-1.6h0.9v1.6H-317.7z"/>
		<path id="Path_98" class="st1" d="M-317.7,141.3v1h-1.4v1.6h-0.9v-1.6h-1.4v-1h1.4v-1.6h0.9v1.6H-317.7z"/>
		<path id="Path_99" class="st1" d="M-317.7,153.8v1h-1.4v1.6h-0.9v-1.6h-1.4v-1h1.4v-1.6h0.9v1.6L-317.7,153.8z"/>
		<path id="Path_100" class="st1" d="M-317.7,166.3v1h-1.4v1.6h-0.9v-1.6h-1.4v-1h1.4v-1.6h0.9v1.6L-317.7,166.3z"/>
		<path id="Path_101" class="st1" d="M-317.7,178.7v1h-1.4v1.6h-0.9v-1.6h-1.4v-1h1.4v-1.6h0.9v1.6L-317.7,178.7z"/>
		<path id="Path_102" class="st1" d="M-317.7,191.2v1h-1.4v1.6h-0.9v-1.6h-1.4v-1h1.4v-1.6h0.9v1.6H-317.7z"/>
		<path id="Path_103" class="st1" d="M-317.7,203.6v1h-1.4v1.6h-0.9v-1.6h-1.4v-1h1.4v-1.6h0.9v1.6L-317.7,203.6z"/>
		<path id="Path_104" class="st1" d="M-317.7,216.1v1h-1.4v1.6h-0.9v-1.6h-1.4v-1h1.4v-1.6h0.9v1.6H-317.7z"/>
		<path id="Path_105" class="st1" d="M-317.7,228.6v1h-1.4v1.6h-0.9v-1.6h-1.4v-1h1.4V227h0.9v1.6H-317.7z"/>
		<path id="Path_106" class="st1" d="M-317.7,241v1h-1.4v1.6h-0.9v-1.6h-1.4v-1h1.4v-1.6h0.9v1.6H-317.7z"/>
		<path id="Path_107" class="st1" d="M-328.5,4.2v1h-1.4v1.6h-0.9V5.2h-1.4v-1h1.4V2.7h0.9v1.6H-328.5z"/>
		<path id="Path_108" class="st1" d="M-328.5,16.7v1h-1.4v1.6h-0.9v-1.6h-1.4v-1h1.4v-1.6h0.9v1.6H-328.5z"/>
		<path id="Path_109" class="st1" d="M-328.5,29.1v1h-1.4v1.6h-0.9v-1.6h-1.4v-1h1.4v-1.6h0.9v1.6H-328.5z"/>
		<path id="Path_110" class="st1" d="M-328.5,41.6v1h-1.4v1.6h-0.9v-1.6h-1.4v-1h1.4V40h0.9v1.6H-328.5z"/>
		<path id="Path_111" class="st1" d="M-328.5,54.1v1h-1.4v1.6h-0.9v-1.6h-1.4v-1h1.4v-1.6h0.9v1.6L-328.5,54.1z"/>
		<path id="Path_112" class="st1" d="M-328.5,66.5v1h-1.4v1.6h-0.9v-1.6h-1.4v-1h1.4V65h0.9v1.6H-328.5z"/>
		<path id="Path_113" class="st1" d="M-328.5,79v1h-1.4v1.6h-0.9V80h-1.4v-1h1.4v-1.6h0.9V79H-328.5z"/>
		<path id="Path_114" class="st1" d="M-328.5,91.5v1h-1.4v1.6h-0.9v-1.6h-1.4v-1h1.4v-1.6h0.9v1.6H-328.5z"/>
		<path id="Path_115" class="st1" d="M-328.5,103.9v1h-1.4v1.6h-0.9V105h-1.4v-1h1.4v-1.6h0.9v1.6H-328.5z"/>
		<path id="Path_116" class="st1" d="M-328.5,116.4v1h-1.4v1.6h-0.9v-1.6h-1.4v-1h1.4v-1.6h0.9v1.6H-328.5z"/>
		<path id="Path_117" class="st1" d="M-328.5,128.9v1h-1.4v1.6h-0.9v-1.6h-1.4v-1h1.4v-1.6h0.9v1.6H-328.5z"/>
		<path id="Path_118" class="st1" d="M-328.5,141.3v1h-1.4v1.6h-0.9v-1.6h-1.4v-1h1.4v-1.6h0.9v1.6H-328.5z"/>
		<path id="Path_119" class="st1" d="M-328.5,153.8v1h-1.4v1.6h-0.9v-1.6h-1.4v-1h1.4v-1.6h0.9v1.6L-328.5,153.8z"/>
		<path id="Path_120" class="st1" d="M-328.5,166.3v1h-1.4v1.6h-0.9v-1.6h-1.4v-1h1.4v-1.6h0.9v1.6L-328.5,166.3z"/>
		<path id="Path_121" class="st1" d="M-328.5,178.7v1h-1.4v1.6h-0.9v-1.6h-1.4v-1h1.4v-1.6h0.9v1.6L-328.5,178.7z"/>
		<path id="Path_122" class="st1" d="M-328.5,191.2v1h-1.4v1.6h-0.9v-1.6h-1.4v-1h1.4v-1.6h0.9v1.6H-328.5z"/>
		<path id="Path_123" class="st1" d="M-328.5,203.6v1h-1.4v1.6h-0.9v-1.6h-1.4v-1h1.4v-1.6h0.9v1.6L-328.5,203.6z"/>
		<path id="Path_124" class="st1" d="M-328.5,216.1v1h-1.4v1.6h-0.9v-1.6h-1.4v-1h1.4v-1.6h0.9v1.6H-328.5z"/>
		<path id="Path_125" class="st1" d="M-328.5,228.6v1h-1.4v1.6h-0.9v-1.6h-1.4v-1h1.4V227h0.9v1.6H-328.5z"/>
		<path id="Path_126" class="st1" d="M-328.5,241v1h-1.4v1.6h-0.9v-1.6h-1.4v-1h1.4v-1.6h0.9v1.6H-328.5z"/>
		<path id="Path_127" class="st1" d="M-339.4,4.2v1h-1.4v1.6h-0.9V5.2h-1.4v-1h1.4V2.7h0.9v1.6H-339.4z"/>
		<path id="Path_128" class="st1" d="M-339.4,16.7v1h-1.4v1.6h-0.9v-1.6h-1.4v-1h1.4v-1.6h0.9v1.6H-339.4z"/>
		<path id="Path_129" class="st1" d="M-339.4,29.1v1h-1.4v1.6h-0.9v-1.6h-1.4v-1h1.4v-1.6h0.9v1.6H-339.4z"/>
		<path id="Path_130" class="st1" d="M-339.4,41.6v1h-1.4v1.6h-0.9v-1.6h-1.4v-1h1.4V40h0.9v1.6H-339.4z"/>
		<path id="Path_131" class="st1" d="M-339.4,54.1v1h-1.4v1.6h-0.9v-1.6h-1.4v-1h1.4v-1.6h0.9v1.6L-339.4,54.1z"/>
		<path id="Path_132" class="st1" d="M-339.4,66.5v1h-1.4v1.6h-0.9v-1.6h-1.4v-1h1.4V65h0.9v1.6H-339.4z"/>
		<path id="Path_133" class="st1" d="M-339.4,79v1h-1.4v1.6h-0.9V80h-1.4v-1h1.4v-1.6h0.9V79H-339.4z"/>
		<path id="Path_134" class="st1" d="M-339.4,91.5v1h-1.4v1.6h-0.9v-1.6h-1.4v-1h1.4v-1.6h0.9v1.6H-339.4z"/>
		<path id="Path_135" class="st1" d="M-339.4,103.9v1h-1.4v1.6h-0.9V105h-1.4v-1h1.4v-1.6h0.9v1.6H-339.4z"/>
		<path id="Path_136" class="st1" d="M-339.4,116.4v1h-1.4v1.6h-0.9v-1.6h-1.4v-1h1.4v-1.6h0.9v1.6H-339.4z"/>
		<path id="Path_137" class="st1" d="M-339.4,128.9v1h-1.4v1.6h-0.9v-1.6h-1.4v-1h1.4v-1.6h0.9v1.6H-339.4z"/>
		<path id="Path_138" class="st1" d="M-339.4,141.3v1h-1.4v1.6h-0.9v-1.6h-1.4v-1h1.4v-1.6h0.9v1.6H-339.4z"/>
		<path id="Path_139" class="st1" d="M-339.4,153.8v1h-1.4v1.6h-0.9v-1.6h-1.4v-1h1.4v-1.6h0.9v1.6L-339.4,153.8z"/>
		<path id="Path_140" class="st1" d="M-339.4,166.3v1h-1.4v1.6h-0.9v-1.6h-1.4v-1h1.4v-1.6h0.9v1.6L-339.4,166.3z"/>
		<path id="Path_141" class="st1" d="M-339.4,178.7v1h-1.4v1.6h-0.9v-1.6h-1.4v-1h1.4v-1.6h0.9v1.6L-339.4,178.7z"/>
		<path id="Path_142" class="st1" d="M-339.4,191.2v1h-1.4v1.6h-0.9v-1.6h-1.4v-1h1.4v-1.6h0.9v1.6H-339.4z"/>
		<path id="Path_143" class="st1" d="M-339.4,203.6v1h-1.4v1.6h-0.9v-1.6h-1.4v-1h1.4v-1.6h0.9v1.6L-339.4,203.6z"/>
		<path id="Path_144" class="st1" d="M-339.4,216.1v1h-1.4v1.6h-0.9v-1.6h-1.4v-1h1.4v-1.6h0.9v1.6H-339.4z"/>
		<path id="Path_145" class="st1" d="M-339.4,228.6v1h-1.4v1.6h-0.9v-1.6h-1.4v-1h1.4V227h0.9v1.6H-339.4z"/>
		<path id="Path_146" class="st1" d="M-339.4,241v1h-1.4v1.6h-0.9v-1.6h-1.4v-1h1.4v-1.6h0.9v1.6H-339.4z"/>
		<path id="Path_147" class="st1" d="M-350.3,4.2v1h-1.4v1.6h-0.9V5.2h-1.4v-1h1.4V2.7h0.9v1.6H-350.3z"/>
		<path id="Path_148" class="st1" d="M-350.3,16.7v1h-1.4v1.6h-0.9v-1.6h-1.4v-1h1.4v-1.6h0.9v1.6H-350.3z"/>
		<path id="Path_149" class="st1" d="M-350.3,29.1v1h-1.4v1.6h-0.9v-1.6h-1.4v-1h1.4v-1.6h0.9v1.6H-350.3z"/>
		<path id="Path_150" class="st1" d="M-350.3,41.6v1h-1.4v1.6h-0.9v-1.6h-1.4v-1h1.4V40h0.9v1.6H-350.3z"/>
		<path id="Path_151" class="st1" d="M-350.3,54.1v1h-1.4v1.6h-0.9v-1.6h-1.4v-1h1.4v-1.6h0.9v1.6L-350.3,54.1z"/>
		<path id="Path_152" class="st1" d="M-350.3,66.5v1h-1.4v1.6h-0.9v-1.6h-1.4v-1h1.4V65h0.9v1.6H-350.3z"/>
		<path id="Path_153" class="st1" d="M-350.3,79v1h-1.4v1.6h-0.9V80h-1.4v-1h1.4v-1.6h0.9V79H-350.3z"/>
		<path id="Path_154" class="st1" d="M-350.3,91.5v1h-1.4v1.6h-0.9v-1.6h-1.4v-1h1.4v-1.6h0.9v1.6H-350.3z"/>
		<path id="Path_155" class="st1" d="M-350.3,103.9v1h-1.4v1.6h-0.9V105h-1.4v-1h1.4v-1.6h0.9v1.6H-350.3z"/>
		<path id="Path_156" class="st1" d="M-350.3,116.4v1h-1.4v1.6h-0.9v-1.6h-1.4v-1h1.4v-1.6h0.9v1.6H-350.3z"/>
		<path id="Path_157" class="st1" d="M-350.3,128.9v1h-1.4v1.6h-0.9v-1.6h-1.4v-1h1.4v-1.6h0.9v1.6H-350.3z"/>
		<path id="Path_158" class="st1" d="M-350.3,141.3v1h-1.4v1.6h-0.9v-1.6h-1.4v-1h1.4v-1.6h0.9v1.6H-350.3z"/>
		<path id="Path_159" class="st1" d="M-350.3,153.8v1h-1.4v1.6h-0.9v-1.6h-1.4v-1h1.4v-1.6h0.9v1.6L-350.3,153.8z"/>
		<path id="Path_160" class="st1" d="M-350.3,166.3v1h-1.4v1.6h-0.9v-1.6h-1.4v-1h1.4v-1.6h0.9v1.6L-350.3,166.3z"/>
		<path id="Path_161" class="st1" d="M-350.3,178.7v1h-1.4v1.6h-0.9v-1.6h-1.4v-1h1.4v-1.6h0.9v1.6L-350.3,178.7z"/>
		<path id="Path_162" class="st1" d="M-350.3,191.2v1h-1.4v1.6h-0.9v-1.6h-1.4v-1h1.4v-1.6h0.9v1.6H-350.3z"/>
		<path id="Path_163" class="st1" d="M-350.3,203.6v1h-1.4v1.6h-0.9v-1.6h-1.4v-1h1.4v-1.6h0.9v1.6L-350.3,203.6z"/>
		<path id="Path_164" class="st1" d="M-350.3,216.1v1h-1.4v1.6h-0.9v-1.6h-1.4v-1h1.4v-1.6h0.9v1.6H-350.3z"/>
		<path id="Path_165" class="st1" d="M-350.3,228.6v1h-1.4v1.6h-0.9v-1.6h-1.4v-1h1.4V227h0.9v1.6H-350.3z"/>
		<path id="Path_166" class="st1" d="M-350.3,241v1h-1.4v1.6h-0.9v-1.6h-1.4v-1h1.4v-1.6h0.9v1.6H-350.3z"/>
		<path id="Path_167" class="st1" d="M-361.2,4.2v1h-1.4v1.6h-0.9V5.2h-1.4v-1h1.4V2.7h0.9v1.6H-361.2z"/>
		<path id="Path_168" class="st1" d="M-361.2,16.7v1h-1.4v1.6h-0.9v-1.6h-1.4v-1h1.4v-1.6h0.9v1.6H-361.2z"/>
		<path id="Path_169" class="st1" d="M-361.2,29.1v1h-1.4v1.6h-0.9v-1.6h-1.4v-1h1.4v-1.6h0.9v1.6H-361.2z"/>
		<path id="Path_170" class="st1" d="M-361.2,41.6v1h-1.4v1.6h-0.9v-1.6h-1.4v-1h1.4V40h0.9v1.6H-361.2z"/>
		<path id="Path_171" class="st1" d="M-361.2,54.1v1h-1.4v1.6h-0.9v-1.6h-1.4v-1h1.4v-1.6h0.9v1.6L-361.2,54.1z"/>
		<path id="Path_172" class="st1" d="M-361.2,66.5v1h-1.4v1.6h-0.9v-1.6h-1.4v-1h1.4V65h0.9v1.6H-361.2z"/>
		<path id="Path_173" class="st1" d="M-361.2,79v1h-1.4v1.6h-0.9V80h-1.4v-1h1.4v-1.6h0.9V79H-361.2z"/>
		<path id="Path_174" class="st1" d="M-361.2,91.5v1h-1.4v1.6h-0.9v-1.6h-1.4v-1h1.4v-1.6h0.9v1.6H-361.2z"/>
		<path id="Path_175" class="st1" d="M-361.2,103.9v1h-1.4v1.6h-0.9V105h-1.4v-1h1.4v-1.6h0.9v1.6H-361.2z"/>
		<path id="Path_176" class="st1" d="M-361.2,116.4v1h-1.4v1.6h-0.9v-1.6h-1.4v-1h1.4v-1.6h0.9v1.6H-361.2z"/>
		<path id="Path_177" class="st1" d="M-361.2,128.9v1h-1.4v1.6h-0.9v-1.6h-1.4v-1h1.4v-1.6h0.9v1.6H-361.2z"/>
		<path id="Path_178" class="st1" d="M-361.2,141.3v1h-1.4v1.6h-0.9v-1.6h-1.4v-1h1.4v-1.6h0.9v1.6H-361.2z"/>
		<path id="Path_179" class="st1" d="M-361.2,153.8v1h-1.4v1.6h-0.9v-1.6h-1.4v-1h1.4v-1.6h0.9v1.6L-361.2,153.8z"/>
		<path id="Path_180" class="st1" d="M-361.2,166.3v1h-1.4v1.6h-0.9v-1.6h-1.4v-1h1.4v-1.6h0.9v1.6L-361.2,166.3z"/>
		<path id="Path_181" class="st1" d="M-361.2,178.7v1h-1.4v1.6h-0.9v-1.6h-1.4v-1h1.4v-1.6h0.9v1.6L-361.2,178.7z"/>
		<path id="Path_182" class="st1" d="M-361.2,191.2v1h-1.4v1.6h-0.9v-1.6h-1.4v-1h1.4v-1.6h0.9v1.6H-361.2z"/>
		<path id="Path_183" class="st1" d="M-361.2,203.6v1h-1.4v1.6h-0.9v-1.6h-1.4v-1h1.4v-1.6h0.9v1.6L-361.2,203.6z"/>
		<path id="Path_184" class="st1" d="M-361.2,216.1v1h-1.4v1.6h-0.9v-1.6h-1.4v-1h1.4v-1.6h0.9v1.6H-361.2z"/>
		<path id="Path_185" class="st1" d="M-361.2,228.6v1h-1.4v1.6h-0.9v-1.6h-1.4v-1h1.4V227h0.9v1.6H-361.2z"/>
		<path id="Path_186" class="st1" d="M-361.2,241v1h-1.4v1.6h-0.9v-1.6h-1.4v-1h1.4v-1.6h0.9v1.6H-361.2z"/>
		<path id="Path_187" class="st1" d="M-372,4.2v1h-1.4v1.6h-0.9V5.2h-1.4v-1h1.4V2.7h0.9v1.6H-372z"/>
		<path id="Path_188" class="st1" d="M-372,16.7v1h-1.4v1.6h-0.9v-1.6h-1.4v-1h1.4v-1.6h0.9v1.6H-372z"/>
		<path id="Path_189" class="st1" d="M-372,29.1v1h-1.4v1.6h-0.9v-1.6h-1.4v-1h1.4v-1.6h0.9v1.6H-372z"/>
		<path id="Path_190" class="st1" d="M-372,41.6v1h-1.4v1.6h-0.9v-1.6h-1.4v-1h1.4V40h0.9v1.6H-372z"/>
		<path id="Path_191" class="st1" d="M-372,54.1v1h-1.4v1.6h-0.9v-1.6h-1.4v-1h1.4v-1.6h0.9v1.6L-372,54.1z"/>
		<path id="Path_192" class="st1" d="M-372,66.5v1h-1.4v1.6h-0.9v-1.6h-1.4v-1h1.4V65h0.9v1.6H-372z"/>
		<path id="Path_193" class="st1" d="M-372,79v1h-1.4v1.6h-0.9V80h-1.4v-1h1.4v-1.6h0.9V79H-372z"/>
		<path id="Path_194" class="st1" d="M-372,91.5v1h-1.4v1.6h-0.9v-1.6h-1.4v-1h1.4v-1.6h0.9v1.6H-372z"/>
		<path id="Path_195" class="st1" d="M-372,103.9v1h-1.4v1.6h-0.9V105h-1.4v-1h1.4v-1.6h0.9v1.6H-372z"/>
		<path id="Path_196" class="st1" d="M-372,116.4v1h-1.4v1.6h-0.9v-1.6h-1.4v-1h1.4v-1.6h0.9v1.6H-372z"/>
		<path id="Path_197" class="st1" d="M-372,128.9v1h-1.4v1.6h-0.9v-1.6h-1.4v-1h1.4v-1.6h0.9v1.6H-372z"/>
		<path id="Path_198" class="st1" d="M-372,141.3v1h-1.4v1.6h-0.9v-1.6h-1.4v-1h1.4v-1.6h0.9v1.6H-372z"/>
		<path id="Path_199" class="st1" d="M-372,153.8v1h-1.4v1.6h-0.9v-1.6h-1.4v-1h1.4v-1.6h0.9v1.6L-372,153.8z"/>
		<path id="Path_200" class="st1" d="M-372,166.3v1h-1.4v1.6h-0.9v-1.6h-1.4v-1h1.4v-1.6h0.9v1.6L-372,166.3z"/>
		<path id="Path_201" class="st1" d="M-372,178.7v1h-1.4v1.6h-0.9v-1.6h-1.4v-1h1.4v-1.6h0.9v1.6L-372,178.7z"/>
		<path id="Path_202" class="st1" d="M-372,191.2v1h-1.4v1.6h-0.9v-1.6h-1.4v-1h1.4v-1.6h0.9v1.6H-372z"/>
		<path id="Path_203" class="st1" d="M-372,203.6v1h-1.4v1.6h-0.9v-1.6h-1.4v-1h1.4v-1.6h0.9v1.6L-372,203.6z"/>
		<path id="Path_204" class="st1" d="M-372,216.1v1h-1.4v1.6h-0.9v-1.6h-1.4v-1h1.4v-1.6h0.9v1.6H-372z"/>
		<path id="Path_205" class="st1" d="M-372,228.6v1h-1.4v1.6h-0.9v-1.6h-1.4v-1h1.4V227h0.9v1.6H-372z"/>
		<path id="Path_206" class="st1" d="M-372,241v1h-1.4v1.6h-0.9v-1.6h-1.4v-1h1.4v-1.6h0.9v1.6H-372z"/>
		<path id="Path_207" class="st1" d="M-382.9,4.2v1h-1.4v1.6h-0.9V5.2h-1.4v-1h1.4V2.7h0.9v1.6H-382.9z"/>
		<path id="Path_208" class="st1" d="M-382.9,16.7v1h-1.4v1.6h-0.9v-1.6h-1.4v-1h1.4v-1.6h0.9v1.6H-382.9z"/>
		<path id="Path_209" class="st1" d="M-382.9,29.1v1h-1.4v1.6h-0.9v-1.6h-1.4v-1h1.4v-1.6h0.9v1.6H-382.9z"/>
		<path id="Path_210" class="st1" d="M-382.9,41.6v1h-1.4v1.6h-0.9v-1.6h-1.4v-1h1.4V40h0.9v1.6H-382.9z"/>
		<path id="Path_211" class="st1" d="M-382.9,54.1v1h-1.4v1.6h-0.9v-1.6h-1.4v-1h1.4v-1.6h0.9v1.6L-382.9,54.1z"/>
		<path id="Path_212" class="st1" d="M-382.9,66.5v1h-1.4v1.6h-0.9v-1.6h-1.4v-1h1.4V65h0.9v1.6H-382.9z"/>
		<path id="Path_213" class="st1" d="M-382.9,79v1h-1.4v1.6h-0.9V80h-1.4v-1h1.4v-1.6h0.9V79H-382.9z"/>
		<path id="Path_214" class="st1" d="M-382.9,91.5v1h-1.4v1.6h-0.9v-1.6h-1.4v-1h1.4v-1.6h0.9v1.6H-382.9z"/>
		<path id="Path_215" class="st1" d="M-382.9,103.9v1h-1.4v1.6h-0.9V105h-1.4v-1h1.4v-1.6h0.9v1.6H-382.9z"/>
		<path id="Path_216" class="st1" d="M-382.9,116.4v1h-1.4v1.6h-0.9v-1.6h-1.4v-1h1.4v-1.6h0.9v1.6H-382.9z"/>
		<path id="Path_217" class="st1" d="M-382.9,128.9v1h-1.4v1.6h-0.9v-1.6h-1.4v-1h1.4v-1.6h0.9v1.6H-382.9z"/>
		<path id="Path_218" class="st1" d="M-382.9,141.3v1h-1.4v1.6h-0.9v-1.6h-1.4v-1h1.4v-1.6h0.9v1.6H-382.9z"/>
		<path id="Path_219" class="st1" d="M-382.9,153.8v1h-1.4v1.6h-0.9v-1.6h-1.4v-1h1.4v-1.6h0.9v1.6L-382.9,153.8z"/>
		<path id="Path_220" class="st1" d="M-382.9,166.3v1h-1.4v1.6h-0.9v-1.6h-1.4v-1h1.4v-1.6h0.9v1.6L-382.9,166.3z"/>
		<path id="Path_221" class="st1" d="M-382.9,178.7v1h-1.4v1.6h-0.9v-1.6h-1.4v-1h1.4v-1.6h0.9v1.6L-382.9,178.7z"/>
		<path id="Path_222" class="st1" d="M-382.9,191.2v1h-1.4v1.6h-0.9v-1.6h-1.4v-1h1.4v-1.6h0.9v1.6H-382.9z"/>
		<path id="Path_223" class="st1" d="M-382.9,203.6v1h-1.4v1.6h-0.9v-1.6h-1.4v-1h1.4v-1.6h0.9v1.6L-382.9,203.6z"/>
		<path id="Path_224" class="st1" d="M-382.9,216.1v1h-1.4v1.6h-0.9v-1.6h-1.4v-1h1.4v-1.6h0.9v1.6H-382.9z"/>
		<path id="Path_225" class="st1" d="M-382.9,228.6v1h-1.4v1.6h-0.9v-1.6h-1.4v-1h1.4V227h0.9v1.6H-382.9z"/>
		<path id="Path_226" class="st1" d="M-382.9,241v1h-1.4v1.6h-0.9v-1.6h-1.4v-1h1.4v-1.6h0.9v1.6H-382.9z"/>
		<path id="Path_227" class="st1" d="M-393.8,4.2v1h-1.4v1.6h-0.9V5.2h-1.4v-1h1.4V2.7h0.9v1.6H-393.8z"/>
		<path id="Path_228" class="st1" d="M-393.8,16.7v1h-1.4v1.6h-0.9v-1.6h-1.4v-1h1.4v-1.6h0.9v1.6H-393.8z"/>
		<path id="Path_229" class="st1" d="M-393.8,29.1v1h-1.4v1.6h-0.9v-1.6h-1.4v-1h1.4v-1.6h0.9v1.6H-393.8z"/>
		<path id="Path_230" class="st1" d="M-393.8,41.6v1h-1.4v1.6h-0.9v-1.6h-1.4v-1h1.4V40h0.9v1.6H-393.8z"/>
		<path id="Path_231" class="st1" d="M-393.8,54.1v1h-1.4v1.6h-0.9v-1.6h-1.4v-1h1.4v-1.6h0.9v1.6L-393.8,54.1z"/>
		<path id="Path_232" class="st1" d="M-393.8,66.5v1h-1.4v1.6h-0.9v-1.6h-1.4v-1h1.4V65h0.9v1.6H-393.8z"/>
		<path id="Path_233" class="st1" d="M-393.8,79v1h-1.4v1.6h-0.9V80h-1.4v-1h1.4v-1.6h0.9V79H-393.8z"/>
		<path id="Path_234" class="st1" d="M-393.8,91.5v1h-1.4v1.6h-0.9v-1.6h-1.4v-1h1.4v-1.6h0.9v1.6H-393.8z"/>
		<path id="Path_235" class="st1" d="M-393.8,103.9v1h-1.4v1.6h-0.9V105h-1.4v-1h1.4v-1.6h0.9v1.6H-393.8z"/>
		<path id="Path_236" class="st1" d="M-393.8,116.4v1h-1.4v1.6h-0.9v-1.6h-1.4v-1h1.4v-1.6h0.9v1.6H-393.8z"/>
		<path id="Path_237" class="st1" d="M-393.8,128.9v1h-1.4v1.6h-0.9v-1.6h-1.4v-1h1.4v-1.6h0.9v1.6H-393.8z"/>
		<path id="Path_238" class="st1" d="M-393.8,141.3v1h-1.4v1.6h-0.9v-1.6h-1.4v-1h1.4v-1.6h0.9v1.6H-393.8z"/>
		<path id="Path_239" class="st1" d="M-393.8,153.8v1h-1.4v1.6h-0.9v-1.6h-1.4v-1h1.4v-1.6h0.9v1.6L-393.8,153.8z"/>
		<path id="Path_240" class="st1" d="M-393.8,166.3v1h-1.4v1.6h-0.9v-1.6h-1.4v-1h1.4v-1.6h0.9v1.6L-393.8,166.3z"/>
		<path id="Path_241" class="st1" d="M-393.8,178.7v1h-1.4v1.6h-0.9v-1.6h-1.4v-1h1.4v-1.6h0.9v1.6L-393.8,178.7z"/>
		<path id="Path_242" class="st1" d="M-393.8,191.2v1h-1.4v1.6h-0.9v-1.6h-1.4v-1h1.4v-1.6h0.9v1.6H-393.8z"/>
		<path id="Path_243" class="st1" d="M-393.8,203.6v1h-1.4v1.6h-0.9v-1.6h-1.4v-1h1.4v-1.6h0.9v1.6L-393.8,203.6z"/>
		<path id="Path_244" class="st1" d="M-393.8,216.1v1h-1.4v1.6h-0.9v-1.6h-1.4v-1h1.4v-1.6h0.9v1.6H-393.8z"/>
		<path id="Path_245" class="st1" d="M-393.8,228.6v1h-1.4v1.6h-0.9v-1.6h-1.4v-1h1.4V227h0.9v1.6H-393.8z"/>
		<path id="Path_246" class="st1" d="M-393.8,241v1h-1.4v1.6h-0.9v-1.6h-1.4v-1h1.4v-1.6h0.9v1.6H-393.8z"/>
		<path id="Path_247" class="st1" d="M-404.7,4.2v1h-1.4v1.6h-0.9V5.2h-1.4v-1h1.4V2.7h0.9v1.6H-404.7z"/>
		<path id="Path_248" class="st1" d="M-404.7,16.7v1h-1.4v1.6h-0.9v-1.6h-1.4v-1h1.4v-1.6h0.9v1.6H-404.7z"/>
		<path id="Path_249" class="st1" d="M-404.7,29.1v1h-1.4v1.6h-0.9v-1.6h-1.4v-1h1.4v-1.6h0.9v1.6H-404.7z"/>
		<path id="Path_250" class="st1" d="M-404.7,41.6v1h-1.4v1.6h-0.9v-1.6h-1.4v-1h1.4V40h0.9v1.6H-404.7z"/>
		<path id="Path_251" class="st1" d="M-404.7,54.1v1h-1.4v1.6h-0.9v-1.6h-1.4v-1h1.4v-1.6h0.9v1.6L-404.7,54.1z"/>
		<path id="Path_252" class="st1" d="M-404.7,66.5v1h-1.4v1.6h-0.9v-1.6h-1.4v-1h1.4V65h0.9v1.6H-404.7z"/>
		<path id="Path_253" class="st1" d="M-404.7,79v1h-1.4v1.6h-0.9V80h-1.4v-1h1.4v-1.6h0.9V79H-404.7z"/>
		<path id="Path_254" class="st1" d="M-404.7,91.5v1h-1.4v1.6h-0.9v-1.6h-1.4v-1h1.4v-1.6h0.9v1.6H-404.7z"/>
		<path id="Path_255" class="st1" d="M-404.7,103.9v1h-1.4v1.6h-0.9V105h-1.4v-1h1.4v-1.6h0.9v1.6H-404.7z"/>
		<path id="Path_256" class="st1" d="M-404.7,116.4v1h-1.4v1.6h-0.9v-1.6h-1.4v-1h1.4v-1.6h0.9v1.6H-404.7z"/>
		<path id="Path_257" class="st1" d="M-404.7,128.9v1h-1.4v1.6h-0.9v-1.6h-1.4v-1h1.4v-1.6h0.9v1.6H-404.7z"/>
		<path id="Path_258" class="st1" d="M-404.7,141.3v1h-1.4v1.6h-0.9v-1.6h-1.4v-1h1.4v-1.6h0.9v1.6H-404.7z"/>
		<path id="Path_259" class="st1" d="M-404.7,153.8v1h-1.4v1.6h-0.9v-1.6h-1.4v-1h1.4v-1.6h0.9v1.6L-404.7,153.8z"/>
		<path id="Path_260" class="st1" d="M-404.7,166.3v1h-1.4v1.6h-0.9v-1.6h-1.4v-1h1.4v-1.6h0.9v1.6L-404.7,166.3z"/>
		<path id="Path_261" class="st1" d="M-404.7,178.7v1h-1.4v1.6h-0.9v-1.6h-1.4v-1h1.4v-1.6h0.9v1.6L-404.7,178.7z"/>
		<path id="Path_262" class="st1" d="M-404.7,191.2v1h-1.4v1.6h-0.9v-1.6h-1.4v-1h1.4v-1.6h0.9v1.6H-404.7z"/>
		<path id="Path_263" class="st1" d="M-404.7,203.6v1h-1.4v1.6h-0.9v-1.6h-1.4v-1h1.4v-1.6h0.9v1.6L-404.7,203.6z"/>
		<path id="Path_264" class="st1" d="M-404.7,216.1v1h-1.4v1.6h-0.9v-1.6h-1.4v-1h1.4v-1.6h0.9v1.6H-404.7z"/>
		<path id="Path_265" class="st1" d="M-404.7,228.6v1h-1.4v1.6h-0.9v-1.6h-1.4v-1h1.4V227h0.9v1.6H-404.7z"/>
		<path id="Path_266" class="st1" d="M-404.7,241v1h-1.4v1.6h-0.9v-1.6h-1.4v-1h1.4v-1.6h0.9v1.6H-404.7z"/>
		<path id="Path_267" class="st1" d="M-415.5,4.2v1h-1.4v1.6h-0.9V5.2h-1.4v-1h1.4V2.7h0.9v1.6H-415.5z"/>
		<path id="Path_268" class="st1" d="M-415.5,16.7v1h-1.4v1.6h-0.9v-1.6h-1.4v-1h1.4v-1.6h0.9v1.6H-415.5z"/>
		<path id="Path_269" class="st1" d="M-415.5,29.1v1h-1.4v1.6h-0.9v-1.6h-1.4v-1h1.4v-1.6h0.9v1.6H-415.5z"/>
		<path id="Path_270" class="st1" d="M-415.5,41.6v1h-1.4v1.6h-0.9v-1.6h-1.4v-1h1.4V40h0.9v1.6H-415.5z"/>
		<path id="Path_271" class="st1" d="M-415.5,54.1v1h-1.4v1.6h-0.9v-1.6h-1.4v-1h1.4v-1.6h0.9v1.6L-415.5,54.1z"/>
		<path id="Path_272" class="st1" d="M-415.5,66.5v1h-1.4v1.6h-0.9v-1.6h-1.4v-1h1.4V65h0.9v1.6H-415.5z"/>
		<path id="Path_273" class="st1" d="M-415.5,79v1h-1.4v1.6h-0.9V80h-1.4v-1h1.4v-1.6h0.9V79H-415.5z"/>
		<path id="Path_274" class="st1" d="M-415.5,91.5v1h-1.4v1.6h-0.9v-1.6h-1.4v-1h1.4v-1.6h0.9v1.6H-415.5z"/>
		<path id="Path_275" class="st1" d="M-415.5,103.9v1h-1.4v1.6h-0.9V105h-1.4v-1h1.4v-1.6h0.9v1.6H-415.5z"/>
		<path id="Path_276" class="st1" d="M-415.5,116.4v1h-1.4v1.6h-0.9v-1.6h-1.4v-1h1.4v-1.6h0.9v1.6H-415.5z"/>
		<path id="Path_277" class="st1" d="M-415.5,128.9v1h-1.4v1.6h-0.9v-1.6h-1.4v-1h1.4v-1.6h0.9v1.6H-415.5z"/>
		<path id="Path_278" class="st1" d="M-415.5,141.3v1h-1.4v1.6h-0.9v-1.6h-1.4v-1h1.4v-1.6h0.9v1.6H-415.5z"/>
		<path id="Path_279" class="st1" d="M-415.5,153.8v1h-1.4v1.6h-0.9v-1.6h-1.4v-1h1.4v-1.6h0.9v1.6L-415.5,153.8z"/>
		<path id="Path_280" class="st1" d="M-415.5,166.3v1h-1.4v1.6h-0.9v-1.6h-1.4v-1h1.4v-1.6h0.9v1.6L-415.5,166.3z"/>
		<path id="Path_281" class="st1" d="M-415.5,178.7v1h-1.4v1.6h-0.9v-1.6h-1.4v-1h1.4v-1.6h0.9v1.6L-415.5,178.7z"/>
		<path id="Path_282" class="st1" d="M-415.5,191.2v1h-1.4v1.6h-0.9v-1.6h-1.4v-1h1.4v-1.6h0.9v1.6H-415.5z"/>
		<path id="Path_283" class="st1" d="M-415.5,203.6v1h-1.4v1.6h-0.9v-1.6h-1.4v-1h1.4v-1.6h0.9v1.6L-415.5,203.6z"/>
		<path id="Path_284" class="st1" d="M-415.5,216.1v1h-1.4v1.6h-0.9v-1.6h-1.4v-1h1.4v-1.6h0.9v1.6H-415.5z"/>
		<path id="Path_285" class="st1" d="M-415.5,228.6v1h-1.4v1.6h-0.9v-1.6h-1.4v-1h1.4V227h0.9v1.6H-415.5z"/>
		<path id="Path_286" class="st1" d="M-415.5,241v1h-1.4v1.6h-0.9v-1.6h-1.4v-1h1.4v-1.6h0.9v1.6H-415.5z"/>
		<path id="Path_287" class="st1" d="M-426.4,4.2v1h-1.4v1.6h-0.9V5.2h-1.4v-1h1.4V2.7h0.9v1.6H-426.4z"/>
		<path id="Path_288" class="st1" d="M-426.4,16.7v1h-1.4v1.6h-0.9v-1.6h-1.4v-1h1.4v-1.6h0.9v1.6H-426.4z"/>
		<path id="Path_289" class="st1" d="M-426.4,29.1v1h-1.4v1.6h-0.9v-1.6h-1.4v-1h1.4v-1.6h0.9v1.6H-426.4z"/>
		<path id="Path_290" class="st1" d="M-426.4,41.6v1h-1.4v1.6h-0.9v-1.6h-1.4v-1h1.4V40h0.9v1.6H-426.4z"/>
		<path id="Path_291" class="st1" d="M-426.4,54.1v1h-1.4v1.6h-0.9v-1.6h-1.4v-1h1.4v-1.6h0.9v1.6L-426.4,54.1z"/>
		<path id="Path_292" class="st1" d="M-426.4,66.5v1h-1.4v1.6h-0.9v-1.6h-1.4v-1h1.4V65h0.9v1.6H-426.4z"/>
		<path id="Path_293" class="st1" d="M-426.4,79v1h-1.4v1.6h-0.9V80h-1.4v-1h1.4v-1.6h0.9V79H-426.4z"/>
		<path id="Path_294" class="st1" d="M-426.4,91.5v1h-1.4v1.6h-0.9v-1.6h-1.4v-1h1.4v-1.6h0.9v1.6H-426.4z"/>
		<path id="Path_295" class="st1" d="M-426.4,103.9v1h-1.4v1.6h-0.9V105h-1.4v-1h1.4v-1.6h0.9v1.6H-426.4z"/>
		<path id="Path_296" class="st1" d="M-426.4,116.4v1h-1.4v1.6h-0.9v-1.6h-1.4v-1h1.4v-1.6h0.9v1.6H-426.4z"/>
		<path id="Path_297" class="st1" d="M-426.4,128.9v1h-1.4v1.6h-0.9v-1.6h-1.4v-1h1.4v-1.6h0.9v1.6H-426.4z"/>
		<path id="Path_298" class="st1" d="M-426.4,141.3v1h-1.4v1.6h-0.9v-1.6h-1.4v-1h1.4v-1.6h0.9v1.6H-426.4z"/>
		<path id="Path_299" class="st1" d="M-426.4,153.8v1h-1.4v1.6h-0.9v-1.6h-1.4v-1h1.4v-1.6h0.9v1.6L-426.4,153.8z"/>
		<path id="Path_300" class="st1" d="M-426.4,166.3v1h-1.4v1.6h-0.9v-1.6h-1.4v-1h1.4v-1.6h0.9v1.6L-426.4,166.3z"/>
		<path id="Path_301" class="st1" d="M-426.4,178.7v1h-1.4v1.6h-0.9v-1.6h-1.4v-1h1.4v-1.6h0.9v1.6L-426.4,178.7z"/>
		<path id="Path_302" class="st1" d="M-426.4,191.2v1h-1.4v1.6h-0.9v-1.6h-1.4v-1h1.4v-1.6h0.9v1.6H-426.4z"/>
		<path id="Path_303" class="st1" d="M-426.4,203.6v1h-1.4v1.6h-0.9v-1.6h-1.4v-1h1.4v-1.6h0.9v1.6L-426.4,203.6z"/>
		<path id="Path_304" class="st1" d="M-426.4,216.1v1h-1.4v1.6h-0.9v-1.6h-1.4v-1h1.4v-1.6h0.9v1.6H-426.4z"/>
		<path id="Path_305" class="st1" d="M-426.4,228.6v1h-1.4v1.6h-0.9v-1.6h-1.4v-1h1.4V227h0.9v1.6H-426.4z"/>
		<path id="Path_306" class="st1" d="M-426.4,241v1h-1.4v1.6h-0.9v-1.6h-1.4v-1h1.4v-1.6h0.9v1.6H-426.4z"/>
		<path id="Path_307" class="st1" d="M-437.3,4.2v1h-1.4v1.6h-0.9V5.2h-1.4v-1h1.4V2.7h0.9v1.6H-437.3z"/>
		<path id="Path_308" class="st1" d="M-437.3,16.7v1h-1.4v1.6h-0.9v-1.6h-1.4v-1h1.4v-1.6h0.9v1.6H-437.3z"/>
		<path id="Path_309" class="st1" d="M-437.3,29.1v1h-1.4v1.6h-0.9v-1.6h-1.4v-1h1.4v-1.6h0.9v1.6H-437.3z"/>
		<path id="Path_310" class="st1" d="M-437.3,41.6v1h-1.4v1.6h-0.9v-1.6h-1.4v-1h1.4V40h0.9v1.6H-437.3z"/>
		<path id="Path_311" class="st1" d="M-437.3,54.1v1h-1.4v1.6h-0.9v-1.6h-1.4v-1h1.4v-1.6h0.9v1.6L-437.3,54.1z"/>
		<path id="Path_312" class="st1" d="M-437.3,66.5v1h-1.4v1.6h-0.9v-1.6h-1.4v-1h1.4V65h0.9v1.6H-437.3z"/>
		<path id="Path_313" class="st1" d="M-437.3,79v1h-1.4v1.6h-0.9V80h-1.4v-1h1.4v-1.6h0.9V79H-437.3z"/>
		<path id="Path_314" class="st1" d="M-437.3,91.5v1h-1.4v1.6h-0.9v-1.6h-1.4v-1h1.4v-1.6h0.9v1.6H-437.3z"/>
		<path id="Path_315" class="st1" d="M-437.3,103.9v1h-1.4v1.6h-0.9V105h-1.4v-1h1.4v-1.6h0.9v1.6H-437.3z"/>
		<path id="Path_316" class="st1" d="M-437.3,116.4v1h-1.4v1.6h-0.9v-1.6h-1.4v-1h1.4v-1.6h0.9v1.6H-437.3z"/>
		<path id="Path_317" class="st1" d="M-437.3,128.9v1h-1.4v1.6h-0.9v-1.6h-1.4v-1h1.4v-1.6h0.9v1.6H-437.3z"/>
		<path id="Path_318" class="st1" d="M-437.3,141.3v1h-1.4v1.6h-0.9v-1.6h-1.4v-1h1.4v-1.6h0.9v1.6H-437.3z"/>
		<path id="Path_319" class="st1" d="M-437.3,153.8v1h-1.4v1.6h-0.9v-1.6h-1.4v-1h1.4v-1.6h0.9v1.6L-437.3,153.8z"/>
		<path id="Path_320" class="st1" d="M-437.3,166.3v1h-1.4v1.6h-0.9v-1.6h-1.4v-1h1.4v-1.6h0.9v1.6L-437.3,166.3z"/>
		<path id="Path_321" class="st1" d="M-437.3,178.7v1h-1.4v1.6h-0.9v-1.6h-1.4v-1h1.4v-1.6h0.9v1.6L-437.3,178.7z"/>
		<path id="Path_322" class="st1" d="M-437.3,191.2v1h-1.4v1.6h-0.9v-1.6h-1.4v-1h1.4v-1.6h0.9v1.6H-437.3z"/>
		<path id="Path_323" class="st1" d="M-437.3,203.6v1h-1.4v1.6h-0.9v-1.6h-1.4v-1h1.4v-1.6h0.9v1.6L-437.3,203.6z"/>
		<path id="Path_324" class="st1" d="M-437.3,216.1v1h-1.4v1.6h-0.9v-1.6h-1.4v-1h1.4v-1.6h0.9v1.6H-437.3z"/>
		<path id="Path_325" class="st1" d="M-437.3,228.6v1h-1.4v1.6h-0.9v-1.6h-1.4v-1h1.4V227h0.9v1.6H-437.3z"/>
		<path id="Path_326" class="st1" d="M-437.3,241v1h-1.4v1.6h-0.9v-1.6h-1.4v-1h1.4v-1.6h0.9v1.6H-437.3z"/>
		<path id="Path_327" class="st1" d="M-448.2,4.2v1h-1.4v1.6h-0.9V5.2h-1.4v-1h1.4V2.7h0.9v1.6H-448.2z"/>
		<path id="Path_328" class="st1" d="M-448.2,16.7v1h-1.4v1.6h-0.9v-1.6h-1.4v-1h1.4v-1.6h0.9v1.6H-448.2z"/>
		<path id="Path_329" class="st1" d="M-448.2,29.1v1h-1.4v1.6h-0.9v-1.6h-1.4v-1h1.4v-1.6h0.9v1.6H-448.2z"/>
		<path id="Path_330" class="st1" d="M-448.2,41.6v1h-1.4v1.6h-0.9v-1.6h-1.4v-1h1.4V40h0.9v1.6H-448.2z"/>
		<path id="Path_331" class="st1" d="M-448.2,54.1v1h-1.4v1.6h-0.9v-1.6h-1.4v-1h1.4v-1.6h0.9v1.6L-448.2,54.1z"/>
		<path id="Path_332" class="st1" d="M-448.2,66.5v1h-1.4v1.6h-0.9v-1.6h-1.4v-1h1.4V65h0.9v1.6H-448.2z"/>
		<path id="Path_333" class="st1" d="M-448.2,79v1h-1.4v1.6h-0.9V80h-1.4v-1h1.4v-1.6h0.9V79H-448.2z"/>
		<path id="Path_334" class="st1" d="M-448.2,91.5v1h-1.4v1.6h-0.9v-1.6h-1.4v-1h1.4v-1.6h0.9v1.6H-448.2z"/>
		<path id="Path_335" class="st1" d="M-448.2,103.9v1h-1.4v1.6h-0.9V105h-1.4v-1h1.4v-1.6h0.9v1.6H-448.2z"/>
		<path id="Path_336" class="st1" d="M-448.2,116.4v1h-1.4v1.6h-0.9v-1.6h-1.4v-1h1.4v-1.6h0.9v1.6H-448.2z"/>
		<path id="Path_337" class="st1" d="M-448.2,128.9v1h-1.4v1.6h-0.9v-1.6h-1.4v-1h1.4v-1.6h0.9v1.6H-448.2z"/>
		<path id="Path_338" class="st1" d="M-448.2,141.3v1h-1.4v1.6h-0.9v-1.6h-1.4v-1h1.4v-1.6h0.9v1.6H-448.2z"/>
		<path id="Path_339" class="st1" d="M-448.2,153.8v1h-1.4v1.6h-0.9v-1.6h-1.4v-1h1.4v-1.6h0.9v1.6L-448.2,153.8z"/>
		<path id="Path_340" class="st1" d="M-448.2,166.3v1h-1.4v1.6h-0.9v-1.6h-1.4v-1h1.4v-1.6h0.9v1.6L-448.2,166.3z"/>
		<path id="Path_341" class="st1" d="M-448.2,178.7v1h-1.4v1.6h-0.9v-1.6h-1.4v-1h1.4v-1.6h0.9v1.6L-448.2,178.7z"/>
		<path id="Path_342" class="st1" d="M-448.2,191.2v1h-1.4v1.6h-0.9v-1.6h-1.4v-1h1.4v-1.6h0.9v1.6H-448.2z"/>
		<path id="Path_343" class="st1" d="M-448.2,203.6v1h-1.4v1.6h-0.9v-1.6h-1.4v-1h1.4v-1.6h0.9v1.6L-448.2,203.6z"/>
		<path id="Path_344" class="st1" d="M-448.2,216.1v1h-1.4v1.6h-0.9v-1.6h-1.4v-1h1.4v-1.6h0.9v1.6H-448.2z"/>
		<path id="Path_345" class="st1" d="M-448.2,228.6v1h-1.4v1.6h-0.9v-1.6h-1.4v-1h1.4V227h0.9v1.6H-448.2z"/>
		<path id="Path_346" class="st1" d="M-448.2,241v1h-1.4v1.6h-0.9v-1.6h-1.4v-1h1.4v-1.6h0.9v1.6H-448.2z"/>
		<path id="Path_347" class="st1" d="M-459,4.2v1h-1.4v1.6h-0.9V5.2h-1.4v-1h1.4V2.7h0.9v1.6H-459z"/>
		<path id="Path_348" class="st1" d="M-459,16.7v1h-1.4v1.6h-0.9v-1.6h-1.4v-1h1.4v-1.6h0.9v1.6H-459z"/>
		<path id="Path_349" class="st1" d="M-459,29.1v1h-1.4v1.6h-0.9v-1.6h-1.4v-1h1.4v-1.6h0.9v1.6H-459z"/>
		<path id="Path_350" class="st1" d="M-459,41.6v1h-1.4v1.6h-0.9v-1.6h-1.4v-1h1.4V40h0.9v1.6H-459z"/>
		<path id="Path_351" class="st1" d="M-459,54.1v1h-1.4v1.6h-0.9v-1.6h-1.4v-1h1.4v-1.6h0.9v1.6L-459,54.1z"/>
		<path id="Path_352" class="st1" d="M-459,66.5v1h-1.4v1.6h-0.9v-1.6h-1.4v-1h1.4V65h0.9v1.6H-459z"/>
		<path id="Path_353" class="st1" d="M-459,79v1h-1.4v1.6h-0.9V80h-1.4v-1h1.4v-1.6h0.9V79H-459z"/>
		<path id="Path_354" class="st1" d="M-459,91.5v1h-1.4v1.6h-0.9v-1.6h-1.4v-1h1.4v-1.6h0.9v1.6H-459z"/>
		<path id="Path_355" class="st1" d="M-459,103.9v1h-1.4v1.6h-0.9V105h-1.4v-1h1.4v-1.6h0.9v1.6H-459z"/>
		<path id="Path_356" class="st1" d="M-459,116.4v1h-1.4v1.6h-0.9v-1.6h-1.4v-1h1.4v-1.6h0.9v1.6H-459z"/>
		<path id="Path_357" class="st1" d="M-459,128.9v1h-1.4v1.6h-0.9v-1.6h-1.4v-1h1.4v-1.6h0.9v1.6H-459z"/>
		<path id="Path_358" class="st1" d="M-459,141.3v1h-1.4v1.6h-0.9v-1.6h-1.4v-1h1.4v-1.6h0.9v1.6H-459z"/>
		<path id="Path_359" class="st1" d="M-459,153.8v1h-1.4v1.6h-0.9v-1.6h-1.4v-1h1.4v-1.6h0.9v1.6L-459,153.8z"/>
		<path id="Path_360" class="st1" d="M-459,166.3v1h-1.4v1.6h-0.9v-1.6h-1.4v-1h1.4v-1.6h0.9v1.6L-459,166.3z"/>
		<path id="Path_361" class="st1" d="M-459,178.7v1h-1.4v1.6h-0.9v-1.6h-1.4v-1h1.4v-1.6h0.9v1.6L-459,178.7z"/>
		<path id="Path_362" class="st1" d="M-459,191.2v1h-1.4v1.6h-0.9v-1.6h-1.4v-1h1.4v-1.6h0.9v1.6H-459z"/>
		<path id="Path_363" class="st1" d="M-459,203.6v1h-1.4v1.6h-0.9v-1.6h-1.4v-1h1.4v-1.6h0.9v1.6L-459,203.6z"/>
		<path id="Path_364" class="st1" d="M-459,216.1v1h-1.4v1.6h-0.9v-1.6h-1.4v-1h1.4v-1.6h0.9v1.6H-459z"/>
		<path id="Path_365" class="st1" d="M-459,228.6v1h-1.4v1.6h-0.9v-1.6h-1.4v-1h1.4V227h0.9v1.6H-459z"/>
		<path id="Path_366" class="st1" d="M-459,241v1h-1.4v1.6h-0.9v-1.6h-1.4v-1h1.4v-1.6h0.9v1.6H-459z"/>
		<path id="Path_367" class="st1" d="M-469.9,4.2v1h-1.4v1.6h-0.9V5.2h-1.4v-1h1.4V2.7h0.9v1.6H-469.9z"/>
		<path id="Path_368" class="st1" d="M-469.9,16.7v1h-1.4v1.6h-0.9v-1.6h-1.4v-1h1.4v-1.6h0.9v1.6H-469.9z"/>
		<path id="Path_369" class="st1" d="M-469.9,29.1v1h-1.4v1.6h-0.9v-1.6h-1.4v-1h1.4v-1.6h0.9v1.6H-469.9z"/>
		<path id="Path_370" class="st1" d="M-469.9,41.6v1h-1.4v1.6h-0.9v-1.6h-1.4v-1h1.4V40h0.9v1.6H-469.9z"/>
		<path id="Path_371" class="st1" d="M-469.9,54.1v1h-1.4v1.6h-0.9v-1.6h-1.4v-1h1.4v-1.6h0.9v1.6L-469.9,54.1z"/>
		<path id="Path_372" class="st1" d="M-469.9,66.5v1h-1.4v1.6h-0.9v-1.6h-1.4v-1h1.4V65h0.9v1.6H-469.9z"/>
		<path id="Path_373" class="st1" d="M-469.9,79v1h-1.4v1.6h-0.9V80h-1.4v-1h1.4v-1.6h0.9V79H-469.9z"/>
		<path id="Path_374" class="st1" d="M-469.9,91.5v1h-1.4v1.6h-0.9v-1.6h-1.4v-1h1.4v-1.6h0.9v1.6H-469.9z"/>
		<path id="Path_375" class="st1" d="M-469.9,103.9v1h-1.4v1.6h-0.9V105h-1.4v-1h1.4v-1.6h0.9v1.6H-469.9z"/>
		<path id="Path_376" class="st1" d="M-469.9,116.4v1h-1.4v1.6h-0.9v-1.6h-1.4v-1h1.4v-1.6h0.9v1.6H-469.9z"/>
		<path id="Path_377" class="st1" d="M-469.9,128.9v1h-1.4v1.6h-0.9v-1.6h-1.4v-1h1.4v-1.6h0.9v1.6H-469.9z"/>
		<path id="Path_378" class="st1" d="M-469.9,141.3v1h-1.4v1.6h-0.9v-1.6h-1.4v-1h1.4v-1.6h0.9v1.6H-469.9z"/>
		<path id="Path_379" class="st1" d="M-469.9,153.8v1h-1.4v1.6h-0.9v-1.6h-1.4v-1h1.4v-1.6h0.9v1.6L-469.9,153.8z"/>
		<path id="Path_380" class="st1" d="M-469.9,166.3v1h-1.4v1.6h-0.9v-1.6h-1.4v-1h1.4v-1.6h0.9v1.6L-469.9,166.3z"/>
		<path id="Path_381" class="st1" d="M-469.9,178.7v1h-1.4v1.6h-0.9v-1.6h-1.4v-1h1.4v-1.6h0.9v1.6L-469.9,178.7z"/>
		<path id="Path_382" class="st1" d="M-469.9,191.2v1h-1.4v1.6h-0.9v-1.6h-1.4v-1h1.4v-1.6h0.9v1.6H-469.9z"/>
		<path id="Path_383" class="st1" d="M-469.9,203.6v1h-1.4v1.6h-0.9v-1.6h-1.4v-1h1.4v-1.6h0.9v1.6L-469.9,203.6z"/>
		<path id="Path_384" class="st1" d="M-469.9,216.1v1h-1.4v1.6h-0.9v-1.6h-1.4v-1h1.4v-1.6h0.9v1.6H-469.9z"/>
		<path id="Path_385" class="st1" d="M-469.9,228.6v1h-1.4v1.6h-0.9v-1.6h-1.4v-1h1.4V227h0.9v1.6H-469.9z"/>
		<path id="Path_386" class="st1" d="M-469.9,241v1h-1.4v1.6h-0.9v-1.6h-1.4v-1h1.4v-1.6h0.9v1.6H-469.9z"/>
		<path id="Path_387" class="st1" d="M-480.8,4.2v1h-1.4v1.6h-0.9V5.2h-1.4v-1h1.4V2.7h0.9v1.6H-480.8z"/>
		<path id="Path_388" class="st1" d="M-480.8,16.7v1h-1.4v1.6h-0.9v-1.6h-1.4v-1h1.4v-1.6h0.9v1.6H-480.8z"/>
		<path id="Path_389" class="st1" d="M-480.8,29.1v1h-1.4v1.6h-0.9v-1.6h-1.4v-1h1.4v-1.6h0.9v1.6H-480.8z"/>
		<path id="Path_390" class="st1" d="M-480.8,41.6v1h-1.4v1.6h-0.9v-1.6h-1.4v-1h1.4V40h0.9v1.6H-480.8z"/>
		<path id="Path_391" class="st1" d="M-480.8,54.1v1h-1.4v1.6h-0.9v-1.6h-1.4v-1h1.4v-1.6h0.9v1.6L-480.8,54.1z"/>
		<path id="Path_392" class="st1" d="M-480.8,66.5v1h-1.4v1.6h-0.9v-1.6h-1.4v-1h1.4V65h0.9v1.6H-480.8z"/>
		<path id="Path_393" class="st1" d="M-480.8,79v1h-1.4v1.6h-0.9V80h-1.4v-1h1.4v-1.6h0.9V79H-480.8z"/>
		<path id="Path_394" class="st1" d="M-480.8,91.5v1h-1.4v1.6h-0.9v-1.6h-1.4v-1h1.4v-1.6h0.9v1.6H-480.8z"/>
		<path id="Path_395" class="st1" d="M-480.8,103.9v1h-1.4v1.6h-0.9V105h-1.4v-1h1.4v-1.6h0.9v1.6H-480.8z"/>
		<path id="Path_396" class="st1" d="M-480.8,116.4v1h-1.4v1.6h-0.9v-1.6h-1.4v-1h1.4v-1.6h0.9v1.6H-480.8z"/>
		<path id="Path_397" class="st1" d="M-480.8,128.9v1h-1.4v1.6h-0.9v-1.6h-1.4v-1h1.4v-1.6h0.9v1.6H-480.8z"/>
		<path id="Path_398" class="st1" d="M-480.8,141.3v1h-1.4v1.6h-0.9v-1.6h-1.4v-1h1.4v-1.6h0.9v1.6H-480.8z"/>
		<path id="Path_399" class="st1" d="M-480.8,153.8v1h-1.4v1.6h-0.9v-1.6h-1.4v-1h1.4v-1.6h0.9v1.6L-480.8,153.8z"/>
		<path id="Path_400" class="st1" d="M-480.8,166.3v1h-1.4v1.6h-0.9v-1.6h-1.4v-1h1.4v-1.6h0.9v1.6L-480.8,166.3z"/>
		<path id="Path_401" class="st1" d="M-480.8,178.7v1h-1.4v1.6h-0.9v-1.6h-1.4v-1h1.4v-1.6h0.9v1.6L-480.8,178.7z"/>
		<path id="Path_402" class="st1" d="M-480.8,191.2v1h-1.4v1.6h-0.9v-1.6h-1.4v-1h1.4v-1.6h0.9v1.6H-480.8z"/>
		<path id="Path_403" class="st1" d="M-480.8,203.6v1h-1.4v1.6h-0.9v-1.6h-1.4v-1h1.4v-1.6h0.9v1.6L-480.8,203.6z"/>
		<path id="Path_404" class="st1" d="M-480.8,216.1v1h-1.4v1.6h-0.9v-1.6h-1.4v-1h1.4v-1.6h0.9v1.6H-480.8z"/>
		<path id="Path_405" class="st1" d="M-480.8,228.6v1h-1.4v1.6h-0.9v-1.6h-1.4v-1h1.4V227h0.9v1.6H-480.8z"/>
		<path id="Path_406" class="st1" d="M-480.8,241v1h-1.4v1.6h-0.9v-1.6h-1.4v-1h1.4v-1.6h0.9v1.6H-480.8z"/>
		<path id="Path_407" class="st1" d="M-491.7,4.2v1h-1.4v1.6h-0.9V5.2h-1.4v-1h1.4V2.7h0.9v1.6H-491.7z"/>
		<path id="Path_408" class="st1" d="M-491.7,16.7v1h-1.4v1.6h-0.9v-1.6h-1.4v-1h1.4v-1.6h0.9v1.6H-491.7z"/>
		<path id="Path_409" class="st1" d="M-491.7,29.1v1h-1.4v1.6h-0.9v-1.6h-1.4v-1h1.4v-1.6h0.9v1.6H-491.7z"/>
		<path id="Path_410" class="st1" d="M-491.7,41.6v1h-1.4v1.6h-0.9v-1.6h-1.4v-1h1.4V40h0.9v1.6H-491.7z"/>
		<path id="Path_411" class="st1" d="M-491.7,54.1v1h-1.4v1.6h-0.9v-1.6h-1.4v-1h1.4v-1.6h0.9v1.6L-491.7,54.1z"/>
		<path id="Path_412" class="st1" d="M-491.7,66.5v1h-1.4v1.6h-0.9v-1.6h-1.4v-1h1.4V65h0.9v1.6H-491.7z"/>
		<path id="Path_413" class="st1" d="M-491.7,79v1h-1.4v1.6h-0.9V80h-1.4v-1h1.4v-1.6h0.9V79H-491.7z"/>
		<path id="Path_414" class="st1" d="M-491.7,91.5v1h-1.4v1.6h-0.9v-1.6h-1.4v-1h1.4v-1.6h0.9v1.6H-491.7z"/>
		<path id="Path_415" class="st1" d="M-491.7,103.9v1h-1.4v1.6h-0.9V105h-1.4v-1h1.4v-1.6h0.9v1.6H-491.7z"/>
		<path id="Path_416" class="st1" d="M-491.7,116.4v1h-1.4v1.6h-0.9v-1.6h-1.4v-1h1.4v-1.6h0.9v1.6H-491.7z"/>
		<path id="Path_417" class="st1" d="M-491.7,128.9v1h-1.4v1.6h-0.9v-1.6h-1.4v-1h1.4v-1.6h0.9v1.6H-491.7z"/>
		<path id="Path_418" class="st1" d="M-491.7,141.3v1h-1.4v1.6h-0.9v-1.6h-1.4v-1h1.4v-1.6h0.9v1.6H-491.7z"/>
		<path id="Path_419" class="st1" d="M-491.7,153.8v1h-1.4v1.6h-0.9v-1.6h-1.4v-1h1.4v-1.6h0.9v1.6L-491.7,153.8z"/>
		<path id="Path_420" class="st1" d="M-491.7,166.3v1h-1.4v1.6h-0.9v-1.6h-1.4v-1h1.4v-1.6h0.9v1.6L-491.7,166.3z"/>
		<path id="Path_421" class="st1" d="M-491.7,178.7v1h-1.4v1.6h-0.9v-1.6h-1.4v-1h1.4v-1.6h0.9v1.6L-491.7,178.7z"/>
		<path id="Path_422" class="st1" d="M-491.7,191.2v1h-1.4v1.6h-0.9v-1.6h-1.4v-1h1.4v-1.6h0.9v1.6H-491.7z"/>
		<path id="Path_423" class="st1" d="M-491.7,203.6v1h-1.4v1.6h-0.9v-1.6h-1.4v-1h1.4v-1.6h0.9v1.6L-491.7,203.6z"/>
		<path id="Path_424" class="st1" d="M-491.7,216.1v1h-1.4v1.6h-0.9v-1.6h-1.4v-1h1.4v-1.6h0.9v1.6H-491.7z"/>
		<path id="Path_425" class="st1" d="M-491.7,228.6v1h-1.4v1.6h-0.9v-1.6h-1.4v-1h1.4V227h0.9v1.6H-491.7z"/>
		<path id="Path_426" class="st1" d="M-491.7,241v1h-1.4v1.6h-0.9v-1.6h-1.4v-1h1.4v-1.6h0.9v1.6H-491.7z"/>
	</g>
</g>
</svg>
