<svg xmlns="http://www.w3.org/2000/svg" width="33.951" height="40" viewBox="0 0 33.951 40">
  <g id="policy" transform="translate(0 0)">
    <path id="Path_668" data-name="Path 668" d="M358.609,100.347a.97.97,0,0,0-.2-.291l-4.26-4.259a.99.99,0,0,0-.291-.2v4.747Z" transform="translate(-324.786 -95.476)" fill="#0d0857"/>
    <path id="Path_669" data-name="Path 669" d="M221.335,206.686a.866.866,0,0,1-.581-.224l-1.874-1.7a.865.865,0,1,1,1.162-1.282l1.187,1.074,5.039-6.363a.867.867,0,0,1,1.36,1.074l-5.614,7.089a.865.865,0,0,1-.607.325Z" transform="translate(-206.232 -185.063)" fill="#0d0857"/>
    <path id="Path_670" data-name="Path 670" d="M197.423,183.227a8.263,8.263,0,1,0-8.263-8.263,8.263,8.263,0,0,0,8.263,8.263Z" transform="translate(-180.448 -157.753)" fill="none"/>
    <path id="Path_671" data-name="Path 671" d="M152.512,101.388h-6.65V94.724a1.382,1.382,0,0,0-.575-.124h-25.21a1.389,1.389,0,0,0-1.387,1.39v37.22a1.389,1.389,0,0,0,1.387,1.39h31.177a1.389,1.389,0,0,0,1.387-1.39V101.96A1.39,1.39,0,0,0,152.512,101.388Zm-16.847,2.145a8.282,8.282,0,1,1-8.263,8.281,8.272,8.272,0,0,1,8.263-8.281Zm7.693,23H127.972a.867.867,0,0,1,0-1.735h15.387a.867.867,0,0,1,0,1.735Z" transform="translate(-118.69 -94.6)" fill="#0d0857"/>
  </g>
</svg>
