<svg id="Group_17407" data-name="Group 17407" xmlns="http://www.w3.org/2000/svg" width="43.75" height="40" viewBox="0 0 43.75 40">
  <g id="Icons">
    <path id="date" d="M139.1,112.954a3.838,3.838,0,0,0-3.833-3.834H99.183a3.838,3.838,0,0,0-3.833,3.834v4.06a.851.851,0,0,0,.014.136v28.634A3.335,3.335,0,0,0,98.7,149.12h37a3.335,3.335,0,0,0,3.335-3.335V117.361a.953.953,0,0,0,.067-.346Zm-41.844,0a1.929,1.929,0,0,1,1.927-1.928h36.084a1.929,1.929,0,0,1,1.927,1.928v3.107H97.256Zm9.493,29.8h-1.6a1.362,1.362,0,0,1,0-2.723h1.6a1.362,1.362,0,0,1,0,2.723Zm0-7.884h-1.6a1.362,1.362,0,0,1,0-2.723h1.6a1.362,1.362,0,0,1,0,2.723Zm0-8.207h-1.6a1.362,1.362,0,0,1,0-2.723h1.6a1.362,1.362,0,0,1,0,2.723Zm11.276,16.091h-1.6a1.362,1.362,0,1,1,0-2.723h1.6a1.362,1.362,0,0,1,0,2.723Zm0-7.884h-1.6a1.362,1.362,0,0,1,0-2.723h1.6a1.362,1.362,0,0,1,0,2.723Zm0-8.207h-1.6a1.362,1.362,0,0,1,0-2.723h1.6a1.362,1.362,0,0,1,0,2.723ZM129.3,142.757h-1.6a1.362,1.362,0,1,1,0-2.723h1.6a1.362,1.362,0,0,1,0,2.723Zm0-7.884h-1.6a1.362,1.362,0,0,1,0-2.723h1.6a1.362,1.362,0,0,1,0,2.723Zm0-8.207h-1.6a1.362,1.362,0,0,1,0-2.723h1.6a1.362,1.362,0,0,1,0,2.723Z" transform="translate(-95.35 -109.12)" fill="#0d0857"/>
  </g>
</svg>
