<svg id="Group_17548" data-name="Group 17548" xmlns="http://www.w3.org/2000/svg" width="40.709" height="40" viewBox="0 0 40.709 40">
  <g id="Icons">
    <g id="edit" transform="translate(0 0)">
      <path id="Path_663" data-name="Path 663" d="M173.376,242.83h-8.342a.885.885,0,0,0,0,1.769h8.342a.885.885,0,1,0,0-1.769Z" transform="translate(-155.398 -224.494)" fill="none"/>
      <path id="Path_664" data-name="Path 664" d="M165.075,185.639h18.464a.885.885,0,0,0,0-1.769H165.075a.885.885,0,0,0,0,1.769Z" transform="translate(-155.437 -172.981)" fill="none"/>
      <path id="Path_665" data-name="Path 665" d="M357.08,97.65v4.468h4.468Z" transform="translate(-323.964 -97.65)" fill="#0d0857"/>
      <path id="Path_666" data-name="Path 666" d="M120.283,358.37H94.84V359.9a5.387,5.387,0,0,0,5.217,5.542H124.8a3.081,3.081,0,0,0,.343-.013C121.308,364.045,120.283,358.37,120.283,358.37Z" transform="translate(-94.84 -325.445)" fill="#0d0857"/>
      <path id="Path_667" data-name="Path 667" d="M160.961,109.752a2.689,2.689,0,0,0-1.845-.951,2.719,2.719,0,0,0-.393,0v-4.38l-.253-.253h-6.517V97.65H125.643a.993.993,0,0,0-.993.993V129.2h22.985s1.177,6.843,5.586,8.436a5.892,5.892,0,0,0,5.5-5.878V115.227l1.947-1.7A2.713,2.713,0,0,0,160.961,109.752Zm-30.437-1.213h18.454a.884.884,0,0,1,0,1.768h-18.45a.884.884,0,0,1,0-1.768Zm8.335,9.22h-8.335a.884.884,0,0,1,0-1.768h8.335a.884.884,0,0,1,0,1.768Zm20.982-5.178-12.393,10.8-2.381.229.446-2.574L157.962,110.4a1.436,1.436,0,0,1,1.878,2.174Z" transform="translate(-120.882 -97.65)" fill="#0d0857"/>
    </g>
  </g>
</svg>
