<?xml version="1.0" encoding="utf-8"?>
<!-- Generator: Adobe Illustrator 27.0.1, SVG Export Plug-In . SVG Version: 6.00 Build 0)  -->
<svg version="1.1" id="Layer_1" xmlns="http://www.w3.org/2000/svg" xmlns:xlink="http://www.w3.org/1999/xlink" x="0px" y="0px"
	 viewBox="0 0 30.6 31.3" style="enable-background:new 0 0 30.6 31.3;" xml:space="preserve">
<style type="text/css">
	.st0{fill-rule:evenodd;clip-rule:evenodd;fill:#14DE6A;}
</style>
<g id="Group_17423" transform="translate(-1214.36 -718.273)">
	<g id="whatsapp-color" transform="translate(1214.36 718.273)">
		<g id="Group_158" transform="translate(0)">
			<path id="Path_9" class="st0" d="M15.3,0C6.8,0.1-0.1,7.1,0,15.6c0,3.3,1,6.5,2.9,9.2L1,30.6l5.9-1.9c2.5,1.7,5.4,2.6,8.4,2.6
				c8.6-0.2,15.5-7.4,15.3-16C30.4,6.9,23.7,0.2,15.3,0L15.3,0z M11,7.9c-0.3-0.7-0.5-0.8-1-0.8c-0.2,0-0.3,0-0.5,0
				C9,7.1,8.4,7.3,8,7.7c-1,1-1.6,2.4-1.6,3.8c0.1,1.7,0.8,3.3,1.8,4.7c0.2,0.3,3.1,5,7.6,6.9c3.5,1.5,4.6,1.4,5.4,1.2
				c1.3-0.2,2.4-1.1,3-2.2c0.3-0.7,0.4-1.4,0.3-2.2c-0.1-0.2-0.4-0.3-0.9-0.5s-2.6-1.3-3-1.5c-0.4-0.2-0.9,0-1.1,0.3
				c-0.4,0.6-0.8,1.1-1.2,1.6c-0.3,0.3-0.7,0.3-1.1,0.2c-1.3-0.5-2.5-1.3-3.6-2.3c-1-0.9-1.8-2-2.5-3.2c-0.2-0.3-0.1-0.7,0.2-1
				c0.2-0.3,0.4-0.5,0.7-0.8c0.2-0.2,0.4-0.5,0.5-0.7c0.1-0.3,0.1-0.6-0.1-0.8C12.3,11.1,11.4,8.8,11,7.9z"/>
		</g>
	</g>
</g>
</svg>
