<?xml version="1.0" encoding="utf-8"?>
<!-- Generator: Adobe Illustrator 27.0.1, SVG Export Plug-In . SVG Version: 6.00 Build 0)  -->
<svg version="1.1" id="Layer_1" xmlns="http://www.w3.org/2000/svg" xmlns:xlink="http://www.w3.org/1999/xlink" x="0px" y="0px"
	 viewBox="0 0 24.2 22.7" style="enable-background:new 0 0 24.2 22.7;" xml:space="preserve">
<style type="text/css">
	.st0{clip-path:url(#SVGID_00000134211822705138286010000000312271136776080313_);}
	.st1{fill:#04A0BC;}
</style>
<g id="Group_17378" transform="translate(0 0)">
	<g>
		<defs>
			<rect id="SVGID_1_" y="0" width="24.2" height="22.7"/>
		</defs>
		<clipPath id="SVGID_00000004504837298994927540000017719269429647951526_">
			<use xlink:href="#SVGID_1_"  style="overflow:visible;"/>
		</clipPath>
		<g id="Group_17301" style="clip-path:url(#SVGID_00000004504837298994927540000017719269429647951526_);">
			<path id="Path_7885" class="st1" d="M23.6,4H4C3.7,4,3.5,3.8,3.5,3.5S3.7,3,4,3h19.7c0.3,0,0.5,0.2,0.5,0.5S23.9,4,23.6,4"/>
			<path id="Path_7886" class="st1" d="M21.8,22.7H2.4c-1.3,0-2.4-1.1-2.4-2.4V7.6c0-1.3,1.1-2.4,2.4-2.4h19.3
				c1.3,0,2.4,1.1,2.4,2.4v12.6C24.2,21.6,23.1,22.7,21.8,22.7 M2.4,7.2C2.2,7.2,2,7.4,2,7.6v12.6c0,0.2,0.2,0.4,0.4,0.4h19.3
				c0.2,0,0.4-0.2,0.4-0.4V7.6c0-0.2-0.2-0.4-0.4-0.4L2.4,7.2z"/>
			<path id="Path_7887" class="st1" d="M23.2,8.9c-0.6,0-1-0.4-1-1V2.4C22.2,2.2,22,2,21.8,2H2.4C2.2,2,2,2.2,2,2.4v5.5
				c0,0.6-0.4,1-1,1s-1-0.4-1-1V2.4C0,1.1,1.1,0,2.4,0h19.3c1.3,0,2.4,1.1,2.4,2.4v5.5C24.2,8.5,23.8,8.9,23.2,8.9"/>
			<path id="Path_7888" class="st1" d="M22.9,17.4h-5c-1.3,0-2.4-1.1-2.4-2.4v-2.1c0-1.3,1.1-2.4,2.4-2.4h5c0.6,0,1,0.4,1,1
				s-0.4,1-1,1h-5c-0.2,0-0.4,0.2-0.4,0.4V15c0,0.2,0.2,0.4,0.4,0.4h5c0.6,0,1,0.4,1,1C23.9,16.9,23.4,17.4,22.9,17.4"/>
		</g>
	</g>
</g>
</svg>
