<?xml version="1.0" encoding="utf-8"?>
<!-- Generator: Adobe Illustrator 27.0.1, SVG Export Plug-In . SVG Version: 6.00 Build 0)  -->
<svg version="1.1" id="Group_17328" xmlns="http://www.w3.org/2000/svg" xmlns:xlink="http://www.w3.org/1999/xlink" x="0px"
	 y="0px" viewBox="0 0 25.1 29.2" style="enable-background:new 0 0 25.1 29.2;" xml:space="preserve">
<style type="text/css">
	.st0{clip-path:url(#SVGID_00000108307817733429618910000013219417713256531598_);}
	.st1{fill:#04A0BC;}
</style>
<g id="Group_17298">
	<g>
		<defs>
			<rect id="SVGID_1_" y="0" width="25.1" height="29.2"/>
		</defs>
		<clipPath id="SVGID_00000141425177989503381080000002440326073494573443_">
			<use xlink:href="#SVGID_1_"  style="overflow:visible;"/>
		</clipPath>
		<g id="Group_17297" style="clip-path:url(#SVGID_00000141425177989503381080000002440326073494573443_);">
			<path id="Path_7869" class="st1" d="M12.6,20.8c-5.7,0-10.4-4.7-10.4-10.4S6.8,0,12.6,0C18.3,0,23,4.7,23,10.4
				C23,16.1,18.3,20.8,12.6,20.8 M12.6,2.4c-4.4,0-8,3.6-8,8c0,4.4,3.6,8,8,8c4.4,0,8-3.6,8-8c0,0,0,0,0,0C20.6,6,17,2.4,12.6,2.4"
				/>
			<path id="Path_7870" class="st1" d="M12.6,16.4c-3.3,0-6-2.7-6-6c0-3.3,2.7-6,6-6s6,2.7,6,6C18.6,13.7,15.9,16.4,12.6,16.4
				 M12.6,5.6c-2.6,0-4.8,2.1-4.8,4.8s2.1,4.8,4.8,4.8c2.6,0,4.8-2.1,4.8-4.8c0,0,0,0,0,0C17.3,7.8,15.2,5.6,12.6,5.6"/>
			<path id="Path_7871" class="st1" d="M7.4,29.2c-0.4,0-0.8-0.2-1-0.5l-1.9-2.8l-3.4-0.1c-0.7,0-1.2-0.6-1.2-1.2
				c0-0.2,0.1-0.4,0.2-0.6l4.4-8c0.3-0.6,1.1-0.8,1.6-0.5s0.8,1.1,0.5,1.6l-3.5,6.2l2,0c0.4,0,0.8,0.2,1,0.5l1.1,1.7l3.5-6.2
				c0.3-0.6,1.1-0.8,1.6-0.5c0.6,0.3,0.8,1.1,0.5,1.6l-4.4,8C8.3,28.9,7.9,29.2,7.4,29.2L7.4,29.2"/>
			<path id="Path_7872" class="st1" d="M17.7,29.2L17.7,29.2c-0.5,0-0.8-0.2-1.1-0.6l-4.4-8c-0.3-0.6-0.1-1.3,0.5-1.6
				c0.6-0.3,1.3-0.1,1.6,0.5l3.5,6.2l1.1-1.7c0.2-0.3,0.6-0.5,1-0.5l2,0l-3.5-6.2c-0.3-0.6-0.1-1.3,0.5-1.6c0.6-0.3,1.3-0.1,1.6,0.5
				l4.4,8c0.3,0.6,0.1,1.3-0.5,1.6c-0.2,0.1-0.4,0.1-0.6,0.2l-3.4,0.1l-1.9,2.8C18.5,29,18.1,29.2,17.7,29.2"/>
		</g>
	</g>
</g>
</svg>
