<svg xmlns="http://www.w3.org/2000/svg" xmlns:xlink="http://www.w3.org/1999/xlink" width="28.911" height="32.509" viewBox="0 0 28.911 32.509">
  <defs>
    <clipPath id="clip-path">
      <rect id="Rectangle_2819" data-name="Rectangle 2819" width="28.911" height="32.509" fill="#04a0bc"/>
    </clipPath>
  </defs>
  <g id="Group_17377" data-name="Group 17377" clip-path="url(#clip-path)">
    <path id="Path_8411" data-name="Path 8411" d="M12.94,11.706A5.853,5.853,0,0,1,8.8,1.714a5.853,5.853,0,0,1,8.278,8.277,5.816,5.816,0,0,1-4.139,1.714m0-10.57a4.715,4.715,0,1,0,3.336,1.382A4.689,4.689,0,0,0,12.94,1.136" transform="translate(0.965 0)" fill="#169eb7"/>
    <path id="Path_8412" data-name="Path 8412" d="M12.73,2.33a2.108,2.108,0,0,0-1.459.511,1.5,1.5,0,0,0-.34,1.341c.02.184.042.365.065.548a.206.206,0,0,0-.09-.023h-.017a.183.183,0,0,0-.162.2l.1.954a.183.183,0,0,0,.181.164h.017a.17.17,0,0,0,.111-.058c.026.209.051.415.073.623a.767.767,0,0,0,.375.494q.048.336.093.67a8.766,8.766,0,0,0-2.725.781.834.834,0,0,0-.324.334,5.284,5.284,0,0,0,8.2,0,.852.852,0,0,0-.324-.335,8.749,8.749,0,0,0-2.725-.781c.031-.223.061-.447.1-.67a.766.766,0,0,0,.37-.494c.024-.208.049-.414.075-.623a.17.17,0,0,0,.111.058h.017a.18.18,0,0,0,.181-.164l.1-.954a.18.18,0,0,0-.162-.2h-.017a.214.214,0,0,0-.09.023c.023-.183.044-.364.067-.548a1.512,1.512,0,0,0-.34-1.341A2.114,2.114,0,0,0,12.73,2.33" transform="translate(1.175 0.317)" fill="#169eb7"/>
    <path id="Path_8413" data-name="Path 8413" d="M5.852,24.956a5.852,5.852,0,1,1,4.139-1.714,5.816,5.816,0,0,1-4.139,1.714m0-10.57a4.715,4.715,0,1,0,3.336,1.382,4.689,4.689,0,0,0-3.336-1.382" transform="translate(0 1.804)" fill="#169eb7"/>
    <path id="Path_8414" data-name="Path 8414" d="M5.642,15.58a2.108,2.108,0,0,0-1.459.511,1.5,1.5,0,0,0-.34,1.341c.02.184.042.365.065.548a.2.2,0,0,0-.09-.023H3.8a.184.184,0,0,0-.162.2l.1.954a.181.181,0,0,0,.181.164h.017a.181.181,0,0,0,.114-.058c.024.209.049.415.07.623a.767.767,0,0,0,.375.494q.048.336.093.67a8.784,8.784,0,0,0-2.725.781.834.834,0,0,0-.324.334,5.284,5.284,0,0,0,8.2,0,.852.852,0,0,0-.324-.335A8.749,8.749,0,0,0,6.695,21c.031-.223.061-.447.1-.67a.758.758,0,0,0,.37-.494c.024-.208.049-.414.073-.623a.187.187,0,0,0,.114.058h.017a.181.181,0,0,0,.181-.164l.1-.954a.181.181,0,0,0-.162-.2H7.465a.214.214,0,0,0-.09.023c.023-.183.044-.364.067-.548A1.507,1.507,0,0,0,7.1,16.091a2.108,2.108,0,0,0-1.459-.511" transform="translate(0.21 2.121)" fill="#169eb7"/>
    <path id="Path_8415" data-name="Path 8415" d="M20.028,24.956a5.852,5.852,0,1,1,4.139-1.714,5.816,5.816,0,0,1-4.139,1.714m0-10.57a4.715,4.715,0,1,0,3.336,1.382,4.684,4.684,0,0,0-3.336-1.382" transform="translate(1.93 1.804)" fill="#169eb7"/>
    <path id="Path_8416" data-name="Path 8416" d="M19.818,15.58a2.1,2.1,0,0,0-1.458.511,1.5,1.5,0,0,0-.34,1.341c.02.184.042.365.062.548a.2.2,0,0,0-.089-.023h-.018a.183.183,0,0,0-.16.2l.1.954a.183.183,0,0,0,.183.164h.017a.175.175,0,0,0,.111-.058c.026.209.049.415.07.623a.771.771,0,0,0,.377.494c.032.224.06.448.091.67a8.784,8.784,0,0,0-2.725.781.829.829,0,0,0-.322.334,5.282,5.282,0,0,0,7.837.4,4.464,4.464,0,0,0,.364-.4.837.837,0,0,0-.324-.335A8.749,8.749,0,0,0,20.87,21q.046-.334.1-.67a.773.773,0,0,0,.37-.494c.024-.208.049-.414.073-.623a.181.181,0,0,0,.114.058h.017a.179.179,0,0,0,.178-.164l.1-.954a.181.181,0,0,0-.16-.2h-.017a.2.2,0,0,0-.09.023c.023-.183.044-.364.065-.548a1.5,1.5,0,0,0-.34-1.341,2.111,2.111,0,0,0-1.46-.511" transform="translate(2.14 2.121)" fill="#169eb7"/>
    <path id="Path_8417" data-name="Path 8417" d="M22.809,12.773a.571.571,0,0,1-.4-.166l-2.89-2.9a.568.568,0,0,1,.8-.8l2.49,2.5,2.5-2.487a.568.568,0,0,1,.8.806l-2.9,2.887a.563.563,0,0,1-.4.166" transform="translate(2.635 1.19)" fill="#169eb7"/>
    <path id="Path_8418" data-name="Path 8418" d="M23.385,12.213h-.008a.568.568,0,0,1-.56-.576,5.789,5.789,0,0,0-5.7-5.863.568.568,0,0,1,.009-1.136h.006a6.926,6.926,0,0,1,6.82,7.015.568.568,0,0,1-.568.56" transform="translate(2.255 0.631)" fill="#169eb7"/>
    <path id="Path_8419" data-name="Path 8419" d="M5.581,10.895a.558.558,0,0,1-.148-.02.565.565,0,0,1-.4-.7l.915-3.4-3.4-.92a.567.567,0,0,1,.3-1.1L6.792,5.826a.567.567,0,0,1,.4.7L6.129,10.474a.566.566,0,0,1-.548.42" transform="translate(0.289 0.645)" fill="#169eb7"/>
    <path id="Path_8420" data-name="Path 8420" d="M3.173,15.8a.568.568,0,0,1-.5-.292,6.926,6.926,0,0,1,2.668-9.41.568.568,0,1,1,.552.992,5.791,5.791,0,0,0-2.228,7.866.567.567,0,0,1-.5.844" transform="translate(0.245 0.82)" fill="#169eb7"/>
    <path id="Path_8421" data-name="Path 8421" d="M10.586,29.349a.567.567,0,0,1-.549-.423l-1.05-3.956a.568.568,0,0,1,.4-.694l3.955-1.054a.569.569,0,0,1,.293,1.1l-3.406.908.9,3.407a.567.567,0,0,1-.4.694.539.539,0,0,1-.145.019" transform="translate(1.221 3.159)" fill="#169eb7"/>
    <path id="Path_8422" data-name="Path 8422" d="M13.54,27.074a6.869,6.869,0,0,1-3.53-.979.569.569,0,0,1,.583-.977,5.781,5.781,0,0,0,7.926-2,.568.568,0,0,1,.976.581,6.877,6.877,0,0,1-4.247,3.163,6.956,6.956,0,0,1-1.708.214" transform="translate(1.325 3.109)" fill="#169eb7"/>
  </g>
</svg>
