<svg id="Group_17379" data-name="Group 17379" xmlns="http://www.w3.org/2000/svg" xmlns:xlink="http://www.w3.org/1999/xlink" width="19.553" height="27.061" viewBox="0 0 19.553 27.061">
  <defs>
    <clipPath id="clip-path">
      <rect id="Rectangle_2797" data-name="Rectangle 2797" width="19.553" height="27.061" fill="#04a0bc" stroke="rgba(0,0,0,0)" stroke-width="1"/>
    </clipPath>
  </defs>
  <g id="Group_17313" data-name="Group 17313" clip-path="url(#clip-path)">
    <path id="Path_7889" data-name="Path 7889" d="M18.41,2.287H1.143A1.143,1.143,0,0,1,1.143,0H18.41a1.143,1.143,0,1,1,0,2.287" fill="#04a0bc" stroke="rgba(0,0,0,0)" stroke-width="1"/>
    <path id="Path_7890" data-name="Path 7890" d="M18.41,23.955H1.143a1.143,1.143,0,0,1,0-2.287H18.41a1.143,1.143,0,1,1,0,2.287" transform="translate(0 3.106)" fill="#04a0bc" stroke="rgba(0,0,0,0)" stroke-width="1"/>
    <path id="Path_7891" data-name="Path 7891" d="M16.075,27.061H2.958a1.142,1.142,0,0,1-1.143-1.143V20.343a7.677,7.677,0,0,1,4.074-6.785V13.5A7.676,7.676,0,0,1,1.815,6.716V1.143A1.142,1.142,0,0,1,2.958,0H16.075a1.143,1.143,0,0,1,1.143,1.143V6.716A7.671,7.671,0,0,1,13.144,13.5v.057a7.671,7.671,0,0,1,4.074,6.785v5.574a1.143,1.143,0,0,1-1.143,1.143M4.1,24.774h10.83v-4.43a5.4,5.4,0,0,0-3.365-5,1.144,1.144,0,0,1-.709-1.058v-1.5a1.143,1.143,0,0,1,.709-1.058,5.4,5.4,0,0,0,3.365-5V2.287H4.1V6.716a5.4,5.4,0,0,0,3.367,5,1.143,1.143,0,0,1,.707,1.058v1.5a1.142,1.142,0,0,1-.707,1.058,5.4,5.4,0,0,0-3.367,5Z" transform="translate(0.26)" fill="#04a0bc" stroke="rgba(0,0,0,0)" stroke-width="1"/>
    <path id="Path_7892" data-name="Path 7892" d="M8.623,18.5a.572.572,0,0,1-.572-.572V9.7a.572.572,0,0,1,1.143,0v8.23a.572.572,0,0,1-.572.572" transform="translate(1.154 1.309)" fill="#04a0bc" stroke="rgba(0,0,0,0)" stroke-width="1"/>
    <path id="Path_7893" data-name="Path 7893" d="M4.916,21.847a.572.572,0,1,1,0-1.143,3.671,3.671,0,0,0,3.667-3.668.572.572,0,1,1,1.143,0,4.817,4.817,0,0,1-4.81,4.811" transform="translate(0.623 2.36)" fill="#04a0bc" stroke="rgba(0,0,0,0)" stroke-width="1"/>
    <path id="Path_7894" data-name="Path 7894" d="M12.861,21.847a4.817,4.817,0,0,1-4.81-4.811.572.572,0,1,1,1.143,0A3.672,3.672,0,0,0,12.861,20.7a.572.572,0,1,1,0,1.143" transform="translate(1.154 2.36)" fill="#04a0bc" stroke="rgba(0,0,0,0)" stroke-width="1"/>
    <path id="Path_7895" data-name="Path 7895" d="M9.273,10.612H8.962A4.381,4.381,0,0,1,4.588,6.237a.572.572,0,0,1,.572-.572h7.919a.572.572,0,0,1,.572.572,4.382,4.382,0,0,1-4.377,4.376m-3.492-3.8A3.238,3.238,0,0,0,8.962,9.469h.311a3.24,3.24,0,0,0,3.183-2.661Z" transform="translate(0.658 0.812)" fill="#04a0bc" stroke="rgba(0,0,0,0)" stroke-width="1"/>
  </g>
</svg>
